<?xml version="1.0" encoding="utf-8"?><svg id="1" viewBox="0 0 720 500" image-rendering="auto" baseProfile="basic" version="1.1" x="0px" y="0px" width="100%" height="100%" xmlns="http://www.w3.org/2000/svg" xmlns:xlink="http://www.w3.org/1999/xlink"><defs><g id=".__D0.__90.__D0.__BD.__D0.__B8.__D0.__BC.__D0.__B0.__D1.__86.__D0.__B8.__D1.__8F-2" overflow="visible"><path fill="url(#Gradient_1)" stroke="none" d="M31.8 -31.85Q18.65 -45 0 -45 -18.65 -45 -31.85 -31.85 -45 -18.65 -45 0 -45 18.65 -31.85 31.8 -18.65 45 0 45 18.65 45 31.8 31.8 45 18.65 45 0 45 -18.65 31.8 -31.85Z"/></g><radialGradient id="Gradient_1" gradientUnits="userSpaceOnUse" cx="0" cy="0" r="79.4" fx="0" fy="0" gradientTransform="translate(-13.95 -30.9)" spreadMethod="pad"><stop offset="0%" stop-color="#0FF6FF"/><stop offset="100%" stop-color="#4B2D79"/></radialGradient><linearGradient id="Gradient_2" gradientUnits="userSpaceOnUse" x1="421.900" y1="322.1" x2="476.7" y2="322.1" spreadMethod="pad"><stop offset="0%" stop-color="#0EABB1"/><stop offset="16.078%" stop-color="#11A5AE"/><stop offset="38.039%" stop-color="#1994A7"/><stop offset="63.137%" stop-color="#27779A"/><stop offset="90.588%" stop-color="#3A5089"/><stop offset="100%" stop-color="#414182"/></linearGradient><linearGradient id="Gradient_3" gradientUnits="userSpaceOnUse" x1="51.100" y1="223.2" x2="505.1" y2="223.2" spreadMethod="pad"><stop offset="0%" stop-color="#0EABB1"/><stop offset="13.725%" stop-color="#12A2AD"/><stop offset="36.078%" stop-color="#1E8BA3"/><stop offset="63.921%" stop-color="#306592"/><stop offset="96.078%" stop-color="#4A307B"/><stop offset="100%" stop-color="#4D2978"/></linearGradient><linearGradient id="Gradient_4" gradientUnits="userSpaceOnUse" x1="20.949" y1="281.65" x2="557.05" y2="281.65" spreadMethod="pad"><stop offset="0%" stop-color="#000" stop-opacity="0"/><stop offset="69.019%" stop-color="#BFC0C2" stop-opacity="0"/><stop offset="69.019%" stop-color="#BFC0C2"/><stop offset="77.254%" stop-color="#9D9EA3"/><stop offset="85.882%" stop-color="#72737A"/><stop offset="94.509%" stop-color="#3D3F4A"/><stop offset="100%" stop-color="#171926"/></linearGradient><linearGradient id="Gradient_5" gradientUnits="userSpaceOnUse" x1="20.949" y1="281.65" x2="557.05" y2="281.65" spreadMethod="pad"><stop offset="0%" stop-color="#171926"/><stop offset="1.960%" stop-color="#2F313C"/><stop offset="5.882%" stop-color="#5B5C65"/><stop offset="9.803%" stop-color="#828389"/><stop offset="14.509%" stop-color="#A2A3A7"/><stop offset="19.215%" stop-color="#BDBDC0"/><stop offset="24.313%" stop-color="#D1D2D3"/><stop offset="30.196%" stop-color="#E0E0E1"/><stop offset="37.254%" stop-color="#E8E8E9"/><stop offset="48.627%" stop-color="#EBEBEB"/><stop offset="54.509%" stop-color="#E6E6E6"/><stop offset="61.568%" stop-color="#D7D8D9"/><stop offset="69.019%" stop-color="#BFC0C2"/><stop offset="69.019%" stop-color="#BFC0C2" stop-opacity="0"/><stop offset="100%" stop-color="#000" stop-opacity="0"/></linearGradient><linearGradient id="Gradient_6" gradientUnits="userSpaceOnUse" x1="20.949" y1="281.6" x2="557.05" y2="281.6" spreadMethod="pad"><stop offset="0%" stop-color="#5DD6D2"/><stop offset="15.294%" stop-color="#5BD0CF"/><stop offset="36.078%" stop-color="#54BFC5"/><stop offset="60%" stop-color="#48A2B5"/><stop offset="85.882%" stop-color="#397B9F"/><stop offset="100%" stop-color="#2F6391"/></linearGradient><radialGradient id="Gradient_7" gradientUnits="userSpaceOnUse" cx="0" cy="0" r="317.241" fx="-61.429" fy="-86.075" gradientTransform="matrix(-.580 -.813 -.813 .580 313.8 102.8)" spreadMethod="pad"><stop offset="0%" stop-color="#000" stop-opacity="0"/><stop offset="83.921%" stop-color="#86878D" stop-opacity="0"/><stop offset="83.921%" stop-color="#86878D"/><stop offset="92.156%" stop-color="#51535D"/><stop offset="100%" stop-color="#171926"/></radialGradient><radialGradient id="Gradient_8" gradientUnits="userSpaceOnUse" cx="0" cy="0" r="317.241" fx="-61.429" fy="-86.075" gradientTransform="matrix(-.580 -.813 -.813 .580 313.8 102.8)" spreadMethod="pad"><stop offset="0%" stop-color="#171926"/><stop offset="4.705%" stop-color="#1D1F2C"/><stop offset="11.372%" stop-color="#2E303C"/><stop offset="18.823%" stop-color="#4B4C56"/><stop offset="26.666%" stop-color="#72747C"/><stop offset="35.686%" stop-color="#A5A6AB"/><stop offset="44.705%" stop-color="#E2E3E4"/><stop offset="48.627%" stop-color="#FFF"/><stop offset="54.117%" stop-color="#FAFAFA"/><stop offset="60.784%" stop-color="#EBEBED"/><stop offset="68.235%" stop-color="#D3D3D6"/><stop offset="75.686%" stop-color="#B1B2B6"/><stop offset="83.921%" stop-color="#86878D"/><stop offset="83.921%" stop-color="#86878D" stop-opacity="0"/><stop offset="100%" stop-color="#000" stop-opacity="0"/></radialGradient></defs><g id=".__D0.__9C.__D0.__BE.__D0.__BD.__D1.__82.__D0.__B0.__D0.__B6.__D0.__BD.__D1.__8B.__D0.__B9-.__D0.__BA.__D0.__B0.__D0.__B4.__D1.__80-1" overflow="visible"><g id="22.ai_.__D0.__A1.__D0.__BB.__D0.__BE.__D0.__B9-1_.__3CPath.__3E_31" transform="translate(0 127.5)" opacity=".26"><path fill="#000" stroke="none" d="M363.25 326.5Q374.5 333 389.45 333.6 404.4 334.25 414.15 328.6L569.25 239.05Q573.15 236.8 575.35 233.9 577.05 231.65 577.65 229.2 578.9 224.2 575.85 219.05 572.65 213.75 565.6 209.7L214.8 7.15Q203.55 .65 188.6 .05 173.65 -.55 163.9 5.05L8.8 94.6Q3.55 97.6 1.4 101.8 -.7 105.85 .4 110.3 1 112.85 2.7 115.4 5.9 120.2 12.45 123.95L363.25 326.5Z"/></g><path fill="#FFF" stroke="none" d="M382.05 384.2Q395.9 384.75 404.95 379.55L548.7 296.55Q552.25 294.5 554.35 291.8 551.25 287.25 545.3 283.85L220.25 96.15Q209.8 90.15 195.95 89.55 182.1 89 173.05 94.2L29.35 177.2Q25.75 179.25 23.7 182 26.7 186.4 32.7 189.9L357.8 377.6Q368.25 383.6 382.05 384.2Z"/><path fill="url(#Gradient_8)" stroke="none" d="M404.95 384.95Q395.9 390.15 382.05 389.6 368.25 389 357.8 383L32.7 195.3Q29.3 193.3 25.55 184.7 22 175.5 21.2 173.55 20.75 174.65 21.4 182.25 22.05 189.65 22.8 192.85 24.5 199.55 32.7 204.4L357.8 392.05Q368.2 398.1 382.05 398.65 395.9 399.2 404.95 394L548.7 311.05Q555.25 306.2 556.7 298.1 557.05 296.2 557.05 286.15 556.45 287.55 553.75 294.3 550.9 300.65 548.7 301.95L404.95 384.95Z"/><path fill="url(#Gradient_7)" stroke="none" d="M404.95 384.95Q395.9 390.15 382.05 389.6 368.25 389 357.8 383L32.7 195.3Q29.3 193.3 25.55 184.7 22 175.5 21.2 173.55 20.75 174.65 21.4 182.25 22.05 189.65 22.8 192.85 24.5 199.55 32.7 204.4L357.8 392.05Q368.2 398.1 382.05 398.65 395.9 399.2 404.95 394L548.7 311.05Q555.25 306.2 556.7 298.1 557.05 296.2 557.05 286.15 556.45 287.55 553.75 294.3 550.9 300.65 548.7 301.95L404.95 384.95Z"/><path fill="url(#Gradient_6)" stroke="none" d="M382.05 389.6Q395.9 390.15 404.95 384.95L548.7 301.95Q553.95 298.9 555.85 294.6 556.65 292.9 556.95 289 557.25 285.1 556.8 283.25 556.65 284 555.85 287.55 555 290.85 554.35 291.75 552.25 294.45 548.7 296.5L404.95 379.5Q395.9 384.7 382.05 384.15 368.25 383.55 357.8 377.55L32.7 189.85Q26.7 186.35 23.7 181.95 23.05 181 22.2 177.75 21.4 174.35 21.2 173.55 20.75 175.3 21.1 179 21.4 182.65 22.15 184.5 24.65 190.6 32.7 195.3L357.8 383Q368.25 389 382.05 389.6Z"/><path fill="url(#Gradient_5)" stroke="none" d="M382.05 389.65Q395.9 390.2 404.95 385L548.7 302Q553.95 298.95 555.85 294.65 556.65 292.95 556.95 289.05 557.25 285.15 556.8 283.3 556.65 284.05 555.85 287.6 555 290.9 554.35 291.8 552.25 294.5 548.7 296.55L404.95 379.55Q395.9 384.75 382.05 384.2 368.25 383.6 357.8 377.6L32.7 189.9Q26.7 186.4 23.7 182 23.05 181.05 22.2 177.8 21.4 174.4 21.2 173.6 20.75 175.35 21.1 179.05 21.4 182.7 22.15 184.55 24.65 190.65 32.7 195.35L357.8 383.05Q368.25 389.05 382.05 389.65Z"/><path fill="url(#Gradient_4)" stroke="none" d="M382.05 389.65Q395.9 390.2 404.95 385L548.7 302Q553.95 298.95 555.85 294.65 556.65 292.95 556.95 289.05 557.25 285.15 556.8 283.3 556.65 284.05 555.85 287.6 555 290.9 554.35 291.8 552.25 294.5 548.7 296.55L404.95 379.55Q395.9 384.75 382.05 384.2 368.25 383.6 357.8 377.6L32.7 189.9Q26.7 186.4 23.7 182 23.05 181.05 22.2 177.8 21.4 174.4 21.2 173.6 20.75 175.35 21.1 179.05 21.4 182.7 22.15 184.55 24.65 190.65 32.7 195.35L357.8 383.05Q368.25 389.05 382.05 389.65Z"/><path fill="#FFF" stroke="none" d="M382.05 384.2Q395.9 384.75 404.95 379.55L548.7 296.55Q552.25 294.5 554.35 291.8 555.9 289.75 556.5 287.45 555.65 284 552.85 280.8 549.95 277.5 545.3 274.8L220.25 87.1Q209.85 81.05 195.95 80.5 182.1 79.95 173.05 85.15L29.35 168.15Q22.95 171.8 21.55 177.25 22.2 179.75 23.7 182 26.7 186.4 32.7 189.9L357.8 377.6Q368.25 383.6 382.05 384.2Z"/><path fill="#F7FAFA" stroke="none" d="M382.05 384.2Q395.9 384.75 404.95 379.55L548.7 296.55Q552.25 294.5 554.35 291.8 555.9 289.75 556.5 287.45 557.7 282.8 554.8 278.05 551.85 273.1 545.3 269.35L220.25 81.65Q209.8 75.65 195.95 75.05 182.1 74.5 173.05 79.7L29.35 162.7Q24.5 165.5 22.5 169.4 20.55 173.1 21.55 177.25 22.2 179.75 23.7 182 26.7 186.4 32.7 189.9L357.8 377.6Q368.25 383.6 382.05 384.2Z"/><path fill="#F7FAFA" stroke="none" d="M382.05 384.2Q395.9 384.75 404.95 379.55L548.7 296.55Q552.25 294.5 554.35 291.8 555.9 289.75 556.5 287.45 557.7 282.8 554.8 278.05 551.85 273.1 545.3 269.35L220.25 81.65Q209.8 75.65 195.95 75.05 182.1 74.5 173.05 79.7L29.35 162.7Q24.5 165.5 22.5 169.4 20.55 173.1 21.55 177.25 22.2 179.75 23.7 182 26.7 186.4 32.7 189.9L357.8 377.6Q368.25 383.6 382.05 384.2Z"/><path fill="#3B4C86" stroke="none" d="M336.45 357.45L510.4 257 219.45 89.05 45.55 189.45 336.45 357.45Z"/><path fill="url(#Gradient_3)" stroke="none" d="M336.5 354.25L505.1 256.9 219.7 92.15 51.1 189.5 336.5 354.25Z"/><g id="22.ai_.__D0.__A1.__D0.__BB.__D0.__BE.__D0.__B9-1_.__3CPath.__3E_32" transform="translate(334.55 251.4)" opacity=".14"><path fill="#000" stroke="none" d="M133.4 30.1Q129.1 19.35 115.35 11.4 95.55 -.05 67.6 -.05 39.6 -.05 19.8 11.4 0 22.85 0 39 0 55.15 19.8 66.6 33.4 74.45 52.2 77L133.4 30.1Z"/></g><g id="22.ai_.__D0.__A1.__D0.__BB.__D0.__BE.__D0.__B9-1_.__3CPath.__3E_33" transform="translate(358.8 265.4)" opacity=".19"><path fill="#000" stroke="none" d="M85.95 29.5Q87.85 23.55 84.85 17.75 81.7 11.75 74 7.3 61.3 0 43.35 0 25.4 0 12.7 7.3 0 14.6 0 25 0 35.35 12.7 42.7 20.4 47.15 30.75 48.95 40.8 50.7 51.15 49.6L85.95 29.5Z"/></g><g id="22.ai_.__D0.__A1.__D0.__BB.__D0.__BE.__D0.__B9-1_.__3CPath.__3E_34" transform="translate(172.6 123.15)" opacity=".18"><path fill="#000" stroke="none" d="M107.15 30.8Q106.85 28.45 103.8 26.7L60.9 1.95Q57.9 .2 53.9 .05 49.9 -.15 47.25 1.4L2.4 27.3Q-.2 28.8 .05 31.1 .35 33.45 3.35 35.2L46.25 59.95Q49.3 61.7 53.3 61.85 57.35 62.05 59.95 60.5L104.8 34.6Q107.45 33.1 107.15 30.8Z"/></g><g id="22.ai_.__D0.__A1.__D0.__BB.__D0.__BE.__D0.__B9-1_.__3CPath.__3E_35" transform="translate(100.15 165)" opacity=".18"><path fill="#000" stroke="none" d="M107.1 30.8Q106.8 28.45 103.8 26.7L60.9 1.95Q57.85 .2 53.85 .05 49.85 -.15 47.2 1.4L2.35 27.3Q-.25 28.8 0 31.1 .3 33.45 3.35 35.15L46.25 59.95Q49.25 61.7 53.25 61.85 57.3 62 59.9 60.5L104.75 34.6Q107.35 33.1 107.1 30.8Z"/></g><path fill="#155379" stroke="none" d="M142.45 119.45Q142.9 118.85 142.9 118.25 142.9 117 141.25 116 139.75 115.15 137.75 115.05 135.7 115 134.4 115.75L89.95 141.4Q88.8 142.05 88.8 143.1 88.8 143.75 89.25 144.35 89.75 144.95 90.45 145.35 91.95 146.2 93.95 146.3 96 146.4 97.3 145.65L141.75 119.95 142.45 119.45Z"/><path fill="#1599A8" stroke="none" d="M141.75 119.95L142.45 119.45Q141.95 118.9 141.25 118.45 139.75 117.6 137.75 117.5 135.7 117.4 134.4 118.15L89.95 143.8 89.25 144.35Q89.75 144.95 90.45 145.35 91.95 146.2 93.95 146.3 96 146.4 97.3 145.65L141.75 119.95Z"/><path fill="#155379" stroke="none" d="M44.85 165.35L43.35 166.2Q41.6 167.2 41.6 168.75 41.6 169.25 41.8 169.7 42.25 171.05 44.1 172.1 46.4 173.4 49.4 173.55 52.4 173.7 54.35 172.55L55.85 171.7Q57.1 170.9 57.45 170 57.6 169.55 57.6 169.1 57.6 167.2 55.1 165.75 52.85 164.45 49.85 164.3 46.8 164.2 44.85 165.35Z"/><path fill="#1599A8" stroke="none" d="M49.85 166.2Q46.8 166.05 44.85 167.2L43.35 168.05Q42.2 168.7 41.8 169.75 42.25 171.1 44.1 172.15 46.4 173.45 49.4 173.6 52.4 173.75 54.35 172.6L55.85 171.75Q57.1 170.95 57.45 170.05 56.9 168.65 55.1 167.6 52.85 166.3 49.85 166.2Z"/><path fill="url(#Gradient_2)" stroke="none" d="M468.7 333.3Q476.75 328.7 476.75 322.15 476.75 315.55 468.7 310.95 460.7 306.3 449.35 306.3 438 306.3 429.95 310.95 421.95 315.55 421.95 322.15 421.95 328.7 429.95 333.3 438 337.95 449.35 337.95 460.7 337.95 468.7 333.3Z"/><path fill="#F7FAFA" stroke="none" d="M465.55 331.5Q472.25 327.6 472.25 322.1 472.25 316.6 465.55 312.75 458.85 308.9 449.3 308.9 439.75 308.9 433.05 312.75 426.35 316.6 426.35 322.1 426.35 327.6 433.05 331.5 439.75 335.35 449.3 335.35 458.85 335.35 465.55 331.5Z"/><path fill="#0EABB1" stroke="none" d="M483.05 345.55Q484.35 344.8 485.2 343.05 486.05 341.3 486.05 339.55L486.05 338 463.05 351.3 463.05 353Q463.05 354.35 463.65 355.1 464.65 356.25 466.15 355.35L483.05 345.55Z"/><path fill="#282F39" stroke="none" d="M481.95 344.95Q483.25 344.2 484.15 342.45 485.05 340.7 485.05 338.95L485.05 338.65 463.05 351.25 463.05 353Q463.05 354.35 463.65 355.1 464.2 355.15 464.95 354.75L481.95 344.95Z"/><path fill="#17AABA" stroke="none" d="M226.5 117.2Q222.5 117 219.85 118.55L175 144.45Q172.4 145.95 172.65 148.25 172.95 150.6 175.95 152.35L218.85 177.1Q221.9 178.85 225.9 179 229.95 179.2 232.55 177.65L277.4 151.75Q280.05 150.25 279.75 147.95 279.45 145.6 276.4 143.85L233.5 119.1Q230.5 117.35 226.5 117.2Z"/><path fill="#17AABA" stroke="none" d="M207.25 189.75Q206.95 187.4 203.95 185.65L161.05 160.9Q158 159.15 154 159 150 158.8 147.35 160.35L102.5 186.25Q99.9 187.75 100.15 190.05 100.45 192.4 103.5 194.1L146.4 218.9Q149.4 220.65 153.4 220.8 157.45 220.95 160.05 219.45L204.9 193.55Q207.5 192.05 207.25 189.75Z"/><g id="22.ai_.__D0.__A1.__D0.__BB.__D0.__BE.__D0.__B9-1_.__3CGroup.__3E_9" transform="translate(116.9 168.7)" opacity=".21"><path fill="#000" stroke="none" d="M51.7 33.6L47.85 31.4 29.45 42Q27.45 40.1 27.8 37.45 27.95 36.1 29.4 32.75 31.5 27.9 31.4 25.45 31.3 21.45 26.65 18.8 21.95 16.05 16.05 16.2 10.15 16.3 5.1 19.25 -.05 22.25 0 25.95 .05 29.6 5.35 32.65L6.3 33.2 10.65 30.7Q6.85 28.45 6 26.3 4.95 23.65 8.65 21.5 11.75 19.75 15.55 19.7 19.35 19.7 22.3 21.4 25.7 23.35 25.65 26.6 25.6 28.25 24 32.25 21.95 37.4 22.45 40 23.1 43.65 28.4 47.1L51.7 33.6Z"/><path fill="#000" stroke="none" d="M74.1 14.95Q72 11.4 64.15 6.85 55.65 1.95 49.75 .6 40.85 -1.4 33.4 2.9 26.05 7.15 29.45 12.25 31.7 15.65 40.15 20.55 48.25 25.2 54.25 26.4 62.8 28.05 70.1 23.85 77 19.85 74.1 14.95M67.4 15.05Q70.95 18.95 66.2 21.7 61.4 24.5 54.7 22.55 50.7 21.4 44.7 17.9 38.2 14.2 36.1 11.95 32.35 7.95 37.25 5.1 42.15 2.25 49.1 4.45 52.8 5.6 59.25 9.3 65.35 12.8 67.4 15.05Z"/></g><g id="22.ai_.__D0.__A1.__D0.__BB.__D0.__BE.__D0.__B9-1_.__3CGroup.__3E_10" transform="translate(190.65 127.65)" opacity=".18"><path fill="#000" stroke="none" d="M12.2 25.25L38.05 40.2 42.75 37.5 7.05 16.85 3.65 18.8Q6.55 21.5 5.35 23.95 4.3 26.05 -.05 28.55L3.2 30.45 12.2 25.25Z"/><path fill="#000" stroke="none" d="M73.15 17.3Q73.45 13.65 68.3 10.7 61.8 6.95 53.3 9.3 54.6 7.3 53.85 5.4 53.1 3.55 50.45 2.05 46.5 -.25 41.05 .05 35.6 .3 31 2.95 26.3 5.7 25.9 8.85 25.45 12.05 29.5 14.4 32.1 15.9 35.35 16.25 38.6 16.65 41.95 15.85 40 18.25 40.7 20.55 41.4 22.8 44.65 24.7 49.5 27.55 55.75 27.35 61.95 27.2 67.3 24.1 72.9 20.9 73.15 17.3M64.1 13.45Q67.25 15.3 67.2 17.65 67.1 20.05 63.8 21.95 60.55 23.85 56.4 23.85 52.25 23.9 49.05 22.05 45.95 20.3 46.05 17.95 46.15 15.6 49.35 13.75 52.75 11.75 56.85 11.7 60.9 11.6 64.1 13.45M48.95 8.2Q48.8 10.05 46.05 11.65 43.2 13.3 39.95 13.4 36.7 13.5 34.15 12 31.65 10.55 31.85 8.7 32.05 6.8 34.85 5.2 37.65 3.6 40.8 3.5 44 3.4 46.6 4.85 49.1 6.3 48.95 8.2Z"/></g><path fill="#FFF" stroke="none" d="M168.6 196.2L164.75 193.95 146.35 204.55Q144.35 202.65 144.7 200 144.85 198.65 146.3 195.3 148.4 190.45 148.3 188.05 148.2 184.05 143.55 181.35 138.8 178.65 132.95 178.75 127.05 178.9 122 181.8 116.85 184.8 116.9 188.5 116.95 192.2 122.25 195.25L123.2 195.8 127.55 193.3Q123.75 191 122.9 188.85 121.85 186.2 125.55 184.1 128.6 182.3 132.45 182.3 136.25 182.25 139.2 184 142.6 185.95 142.55 189.2 142.5 190.75 140.95 194.85 138.9 199.95 139.35 202.55 140 206.2 145.3 209.65L168.6 196.2Z"/><path fill="#FFF" stroke="none" d="M191 177.5Q188.9 173.95 181.05 169.4 172.5 164.5 166.65 163.2 157.75 161.2 150.3 165.45 142.9 169.7 146.35 174.85 148.6 178.25 157.05 183.1 165.1 187.75 171.15 188.95 179.7 190.6 187 186.4 193.9 182.4 191 177.5M176.15 171.9Q182.3 175.4 184.3 177.6 187.85 181.55 183.1 184.3 178.3 187.05 171.6 185.1 167.65 184 161.6 180.5 155.05 176.7 153 174.55 149.25 170.5 154.15 167.7 159.05 164.85 166 167 169.8 168.2 176.15 171.9Z"/><path fill="#FFF" stroke="none" d="M195.1 140.4Q197.95 143.05 196.75 145.5 195.75 147.55 191.45 150.05L194.65 151.9 203.5 146.75 229.15 161.55 233.8 158.85 198.4 138.45 195.1 140.4Z"/><path fill="#FFF" stroke="none" d="M222.15 124.7Q217.5 127.4 217.05 130.55 216.65 133.7 220.65 136 223.2 137.5 226.45 137.9 229.7 138.25 233 137.5 231.1 139.85 231.8 142.1 232.5 144.4 235.7 146.25 240.5 149 246.65 148.85 252.8 148.7 258.1 145.65 263.6 142.45 263.9 138.9 264.15 135.3 259.1 132.4 252.65 128.65 244.2 131 246.8 126.9 241.4 123.8 237.55 121.55 232.15 121.8 226.75 122.05 222.15 124.7M237.6 126.6Q240.1 128.05 239.95 129.85 239.8 131.7 237.05 133.3 234.25 134.9 231.05 135 227.8 135.1 225.3 133.65 222.8 132.25 223 130.35 223.15 128.5 225.95 126.9 228.75 125.3 231.9 125.2 235.05 125.1 237.6 126.6M240 143.6Q237 141.85 237.1 139.55 237.15 137.2 240.3 135.35 243.7 133.45 247.7 133.35 251.75 133.25 254.9 135.1 258.05 136.9 258 139.25 257.9 141.6 254.6 143.5 251.35 145.4 247.25 145.4 243.15 145.45 240 143.6Z"/><g id="22.ai_.__D0.__A1.__D0.__BB.__D0.__BE.__D0.__B9-1_.__3CPath.__3E_36" transform="translate(381.1 279.25)" opacity=".23"><path fill="#000" stroke="none" d="M20.95 24.15Q29.6 24.15 35.75 20.6 41.85 17.1 41.85 12.05 41.85 7.05 35.75 3.5 29.6 0 20.95 0 12.25 0 6.15 3.5 .05 7.05 .05 12.05 .05 17.1 6.15 20.6 12.25 24.15 20.95 24.15Z"/></g><g id=".__D0.__A1.__D0.__B8.__D0.__BC.__D0.__B2.__D0.__BE.__D0.__BB-1" transform="translate(402.05 284.6)"><g display="none" id="Layer123_0_FILL"><path fill="#0EABB1" stroke="none" d="M14.6 -8.45Q8.55 -11.9 0 -11.9 -8.6 -11.9 -14.6 -8.45 -20.65 -4.95 -20.65 0 -20.65 5 -14.6 8.45 -8.6 11.95 0 11.95 8.55 11.95 14.6 8.45 20.65 5 20.65 0 20.65 -4.95 14.6 -8.45Z"/><animate attributeName="display" repeatCount="indefinite" dur="1s" keyTimes="0;.967;1" values="none;inline;inline"/></g><g display="none" id="Layer122_0_FILL"><path fill="#0EABB1" stroke="none" d="M15 -8.7Q8.8 -12.2 0 -12.2 -8.85 -12.2 -15 -8.7 -21.2 -5.1 -21.2 0 -21.2 5.15 -15 8.7 -8.85 12.25 0 12.25 8.8 12.25 15 8.7 21.2 5.15 21.2 0 21.2 -5.1 15 -8.7Z"/><animate attributeName="display" repeatCount="indefinite" dur="1s" keyTimes="0;.933;.967;1" values="none;inline;none;none"/></g><g display="none" id="Layer121_0_FILL"><path fill="#0EABB1" stroke="none" d="M15.4 -8.9Q9 -12.55 0 -12.55 -9.05 -12.55 -15.4 -8.9 -21.75 -5.2 -21.75 0 -21.75 5.25 -15.4 8.9 -9.05 12.6 0 12.6 9 12.6 15.4 8.9 21.75 5.25 21.75 0 21.75 -5.2 15.4 -8.9Z"/><animate attributeName="display" repeatCount="indefinite" dur="1s" keyTimes="0;.9;.933;1" values="none;inline;none;none"/></g><g display="none" id="Layer120_0_FILL"><path fill="#0EABB1" stroke="none" d="M15.75 -9.15Q9.25 -12.85 0 -12.85 -9.3 -12.85 -15.75 -9.15 -22.3 -5.35 -22.3 0 -22.3 5.4 -15.75 9.15 -9.3 12.9 0 12.9 9.25 12.9 15.75 9.15 22.3 5.4 22.3 0 22.3 -5.35 15.75 -9.15Z"/><animate attributeName="display" repeatCount="indefinite" dur="1s" keyTimes="0;.867;.9;1" values="none;inline;none;none"/></g><g display="none" id="Layer119_0_FILL"><path fill="#0EABB1" stroke="none" d="M16.15 -9.35Q9.45 -13.15 0 -13.15 -9.5 -13.15 -16.15 -9.35 -22.85 -5.5 -22.85 0 -22.85 5.55 -16.15 9.35 -9.5 13.25 0 13.25 9.45 13.25 16.15 9.35 22.85 5.55 22.85 0 22.85 -5.5 16.15 -9.35Z"/><animate attributeName="display" repeatCount="indefinite" dur="1s" keyTimes="0;.833;.867;1" values="none;inline;none;none"/></g><g display="none" id="Layer118_0_FILL"><path fill="#0EABB1" stroke="none" d="M16.55 -9.6Q9.7 -13.5 0 -13.5 -9.75 -13.5 -16.55 -9.6 -23.4 -5.6 -23.4 0 -23.4 5.65 -16.55 9.6 -9.75 13.55 0 13.55 9.7 13.55 16.55 9.6 23.4 5.65 23.4 0 23.4 -5.6 16.55 -9.6Z"/><animate attributeName="display" repeatCount="indefinite" dur="1s" keyTimes="0;.8;.833;1" values="none;inline;none;none"/></g><g display="none" id="Layer117_0_FILL"><path fill="#0EABB1" stroke="none" d="M16.95 -9.8Q9.9 -13.8 0 -13.8 -10 -13.8 -16.95 -9.8 -23.95 -5.75 -23.95 0 -23.95 5.8 -16.95 9.8 -10 13.85 0 13.85 9.9 13.85 16.95 9.8 23.95 5.8 23.95 0 23.95 -5.75 16.95 -9.8Z"/><animate attributeName="display" repeatCount="indefinite" dur="1s" keyTimes="0;.767;.8;1" values="none;inline;none;none"/></g><g display="none" id="Layer116_0_FILL"><path fill="#0EABB1" stroke="none" d="M17.35 -10.05Q10.15 -14.1 0 -14.1 -10.2 -14.1 -17.35 -10.05 -24.5 -5.9 -24.5 0 -24.5 5.95 -17.35 10.05 -10.2 14.2 0 14.2 10.15 14.2 17.35 10.05 24.5 5.95 24.5 0 24.5 -5.9 17.35 -10.05Z"/><animate attributeName="display" repeatCount="indefinite" dur="1s" keyTimes="0;.733;.767;1" values="none;inline;none;none"/></g><g display="none" id="Layer115_0_FILL"><path fill="#0EABB1" stroke="none" d="M17.7 -10.25Q10.35 -14.45 0 -14.45 -10.45 -14.45 -17.7 -10.25 -25.05 -6 -25.05 0 -25.05 6.05 -17.7 10.25 -10.45 14.5 0 14.5 10.35 14.5 17.7 10.25 25.05 6.05 25.05 0 25.05 -6 17.7 -10.25Z"/><animate attributeName="display" repeatCount="indefinite" dur="1s" keyTimes="0;.7;.733;1" values="none;inline;none;none"/></g><g display="none" id="Layer114_0_FILL"><path fill="#0EABB1" stroke="none" d="M18.1 -10.5Q10.6 -14.75 0 -14.75 -10.65 -14.75 -18.1 -10.5 -25.6 -6.15 -25.6 0 -25.6 6.2 -18.1 10.5 -10.65 14.85 0 14.85 10.6 14.85 18.1 10.5 25.6 6.2 25.6 0 25.6 -6.15 18.1 -10.5Z"/><animate attributeName="display" repeatCount="indefinite" dur="1s" keyTimes="0;.667;.7;1" values="none;inline;none;none"/></g><g display="none" id="Layer113_0_FILL"><path fill="#0EABB1" stroke="none" d="M18.5 -10.7Q10.8 -15.05 0 -15.05 -10.9 -15.05 -18.5 -10.7 -26.15 -6.3 -26.15 0 -26.15 6.35 -18.5 10.7 -10.9 15.15 0 15.15 10.8 15.15 18.5 10.7 26.15 6.35 26.15 0 26.15 -6.3 18.5 -10.7Z"/><animate attributeName="display" repeatCount="indefinite" dur="1s" keyTimes="0;.633;.667;1" values="none;inline;none;none"/></g><g display="none" id="Layer112_0_FILL"><path fill="#0EABB1" stroke="none" d="M18.9 -10.95Q11.05 -15.4 0 -15.4 -11.15 -15.4 -18.9 -10.95 -26.7 -6.4 -26.7 0 -26.7 6.45 -18.9 10.95 -11.15 15.45 0 15.45 11.05 15.45 18.9 10.95 26.7 6.45 26.7 0 26.7 -6.4 18.9 -10.95Z"/><animate attributeName="display" repeatCount="indefinite" dur="1s" keyTimes="0;.6;.633;1" values="none;inline;none;none"/></g><g display="none" id="Layer111_0_FILL"><path fill="#0EABB1" stroke="none" d="M19.3 -11.15Q11.25 -15.7 0 -15.7 -11.35 -15.7 -19.3 -11.15 -27.25 -6.55 -27.25 0 -27.25 6.6 -19.3 11.15 -11.35 15.8 0 15.8 11.25 15.8 19.3 11.15 27.25 6.6 27.25 0 27.25 -6.55 19.3 -11.15Z"/><animate attributeName="display" repeatCount="indefinite" dur="1s" keyTimes="0;.567;.6;1" values="none;inline;none;none"/></g><g display="none" id="Layer110_0_FILL"><path fill="#0EABB1" stroke="none" d="M19.65 -11.4Q11.5 -16 0 -16 -11.6 -16 -19.65 -11.4 -27.8 -6.7 -27.8 0 -27.8 6.75 -19.65 11.4 -11.6 16.1 0 16.1 11.5 16.1 19.65 11.4 27.8 6.75 27.8 0 27.8 -6.7 19.65 -11.4Z"/><animate attributeName="display" repeatCount="indefinite" dur="1s" keyTimes="0;.533;.567;1" values="none;inline;none;none"/></g><g display="none" id="Layer109_0_FILL"><path fill="#0EABB1" stroke="none" d="M20.05 -11.6Q11.7 -16.35 0 -16.35 -11.8 -16.35 -20.05 -11.6 -28.35 -6.8 -28.35 0 -28.35 6.85 -20.05 11.6 -11.8 16.45 0 16.45 11.7 16.45 20.05 11.6 28.35 6.85 28.35 0 28.35 -6.8 20.05 -11.6Z"/><animate attributeName="display" repeatCount="indefinite" dur="1s" keyTimes="0;.5;.533;1" values="none;inline;none;none"/></g><g display="none" id="Layer108_0_FILL"><path fill="#0EABB1" stroke="none" d="M20.45 -11.85Q11.95 -16.65 0 -16.65 -12.05 -16.65 -20.45 -11.85 -28.9 -6.95 -28.9 0 -28.9 7 -20.45 11.85 -12.05 16.75 0 16.75 11.95 16.75 20.45 11.85 28.9 7 28.9 0 28.9 -6.95 20.45 -11.85Z"/><animate attributeName="display" repeatCount="indefinite" dur="1s" keyTimes="0;.467;.5;1" values="none;inline;none;none"/></g><g display="none" id="Layer107_0_FILL"><path fill="#0EABB1" stroke="none" d="M20.05 -11.6Q11.7 -16.3 0 -16.3 -11.8 -16.3 -20.05 -11.6 -28.3 -6.8 -28.3 0 -28.3 6.85 -20.05 11.6 -11.8 16.4 0 16.4 11.7 16.4 20.05 11.6 28.3 6.85 28.3 0 28.3 -6.8 20.05 -11.6Z"/><animate attributeName="display" repeatCount="indefinite" dur="1s" keyTimes="0;.433;.467;1" values="none;inline;none;none"/></g><g display="none" id="Layer106_0_FILL"><path fill="#0EABB1" stroke="none" d="M19.6 -11.35Q11.45 -15.95 0 -15.95 -11.55 -15.95 -19.6 -11.35 -27.7 -6.65 -27.7 0 -27.7 6.7 -19.6 11.35 -11.55 16.05 0 16.05 11.45 16.05 19.6 11.35 27.7 6.7 27.7 0 27.7 -6.65 19.6 -11.35Z"/><animate attributeName="display" repeatCount="indefinite" dur="1s" keyTimes="0;.4;.433;1" values="none;inline;none;none"/></g><g display="none" id="Layer105_0_FILL"><path fill="#0EABB1" stroke="none" d="M19.2 -11.1Q11.2 -15.65 0 -15.65 -11.3 -15.65 -19.2 -11.1 -27.15 -6.5 -27.15 0 -27.15 6.55 -19.2 11.1 -11.3 15.7 0 15.7 11.2 15.7 19.2 11.1 27.15 6.55 27.15 0 27.15 -6.5 19.2 -11.1Z"/><animate attributeName="display" repeatCount="indefinite" dur="1s" keyTimes="0;.367;.4;1" values="none;inline;none;none"/></g><g display="none" id="Layer104_0_FILL"><path fill="#0EABB1" stroke="none" d="M18.8 -10.9Q11 -15.3 0 -15.3 -11.05 -15.3 -18.8 -10.9 -26.55 -6.4 -26.55 0 -26.55 6.45 -18.8 10.9 -11.05 15.4 0 15.4 11 15.4 18.8 10.9 26.55 6.45 26.55 0 26.55 -6.4 18.8 -10.9Z"/><animate attributeName="display" repeatCount="indefinite" dur="1s" keyTimes="0;.333;.367;1" values="none;inline;none;none"/></g><g display="none" id="Layer103_0_FILL"><path fill="#0EABB1" stroke="none" d="M18.35 -10.65Q10.75 -14.95 0 -14.95 -10.8 -14.95 -18.35 -10.65 -25.95 -6.25 -25.95 0 -25.95 6.3 -18.35 10.65 -10.8 15.05 0 15.05 10.75 15.05 18.35 10.65 25.95 6.3 25.95 0 25.95 -6.25 18.35 -10.65Z"/><animate attributeName="display" repeatCount="indefinite" dur="1s" keyTimes="0;.3;.333;1" values="none;inline;none;none"/></g><g display="none" id="Layer102_0_FILL"><path fill="#0EABB1" stroke="none" d="M17.95 -10.4Q10.5 -14.6 0 -14.6 -10.55 -14.6 -17.95 -10.4 -25.35 -6.1 -25.35 0 -25.35 6.15 -17.95 10.4 -10.55 14.7 0 14.7 10.5 14.7 17.95 10.4 25.35 6.15 25.35 0 25.35 -6.1 17.95 -10.4Z"/><animate attributeName="display" repeatCount="indefinite" dur="1s" keyTimes="0;.267;.3;1" values="none;inline;none;none"/></g><g display="none" id="Layer101_0_FILL"><path fill="#0EABB1" stroke="none" d="M17.55 -10.15Q10.25 -14.25 0 -14.25 -10.3 -14.25 -17.5 -10.15 -24.75 -5.95 -24.75 0 -24.75 6 -17.5 10.15 -10.3 14.35 0 14.35 10.25 14.35 17.55 10.15 24.8 6 24.8 0 24.8 -5.95 17.55 -10.15Z"/><animate attributeName="display" repeatCount="indefinite" dur="1s" keyTimes="0;.233;.267;1" values="none;inline;none;none"/></g><g display="none" id="Layer100_0_FILL"><path fill="#0EABB1" stroke="none" d="M17.1 -9.9Q10 -13.95 0 -13.95 -10.1 -13.95 -17.1 -9.9 -24.2 -5.8 -24.2 0 -24.2 5.85 -17.1 9.9 -10.1 14 0 14 10 14 17.1 9.9 24.2 5.85 24.2 0 24.2 -5.8 17.1 -9.9Z"/><animate attributeName="display" repeatCount="indefinite" dur="1s" keyTimes="0;.2;.233;1" values="none;inline;none;none"/></g><g display="none" id="Layer99_0_FILL"><path fill="#0EABB1" stroke="none" d="M16.7 -9.65Q9.75 -13.6 0 -13.6 -9.85 -13.6 -16.7 -9.65 -23.6 -5.65 -23.6 0 -23.6 5.7 -16.7 9.65 -9.85 13.65 0 13.65 9.75 13.65 16.7 9.65 23.6 5.7 23.6 0 23.6 -5.65 16.7 -9.65Z"/><animate attributeName="display" repeatCount="indefinite" dur="1s" keyTimes="0;.167;.2;1" values="none;inline;none;none"/></g><g display="none" id="Layer98_0_FILL"><path fill="#0EABB1" stroke="none" d="M16.25 -9.4Q9.5 -13.25 0 -13.25 -9.6 -13.25 -16.25 -9.4 -23 -5.5 -23 0 -23 5.55 -16.25 9.4 -9.6 13.3 0 13.3 9.5 13.3 16.25 9.4 23 5.55 23 0 23 -5.5 16.25 -9.4Z"/><animate attributeName="display" repeatCount="indefinite" dur="1s" keyTimes="0;.133;.167;1" values="none;inline;none;none"/></g><g display="none" id="Layer97_0_FILL"><path fill="#0EABB1" stroke="none" d="M15.85 -9.2Q9.3 -12.9 0 -12.9 -9.35 -12.9 -15.85 -9.2 -22.4 -5.4 -22.4 0 -22.4 5.45 -15.85 9.2 -9.35 13 0 13 9.3 13 15.85 9.2 22.4 5.45 22.4 0 22.4 -5.4 15.85 -9.2Z"/><animate attributeName="display" repeatCount="indefinite" dur="1s" keyTimes="0;.1;.133;1" values="none;inline;none;none"/></g><g display="none" id="Layer96_0_FILL"><path fill="#0EABB1" stroke="none" d="M15.45 -8.95Q9.05 -12.6 0 -12.6 -9.1 -12.6 -15.45 -8.95 -21.85 -5.25 -21.85 0 -21.85 5.3 -15.45 8.95 -9.1 12.65 0 12.65 9.05 12.65 15.45 8.95 21.85 5.3 21.85 0 21.85 -5.25 15.45 -8.95Z"/><animate attributeName="display" repeatCount="indefinite" dur="1s" keyTimes="0;.067;.1;1" values="none;inline;none;none"/></g><g display="none" id="Layer95_0_FILL"><path fill="#0EABB1" stroke="none" d="M15 -8.7Q8.8 -12.25 0 -12.25 -8.85 -12.25 -15 -8.7 -21.25 -5.1 -21.25 0 -21.25 5.15 -15 8.7 -8.85 12.3 0 12.3 8.8 12.3 15 8.7 21.25 5.15 21.25 0 21.25 -5.1 15 -8.7Z"/><animate attributeName="display" repeatCount="indefinite" dur="1s" keyTimes="0;.033;.067;1" values="none;inline;none;none"/></g><g id="Layer94_0_FILL"><path fill="#0EABB1" stroke="none" d="M14.6 -8.45Q8.55 -11.9 0 -11.9 -8.6 -11.9 -14.6 -8.45 -20.65 -4.95 -20.65 0 -20.65 5 -14.6 8.45 -8.6 11.95 0 11.95 8.55 11.95 14.6 8.45 20.65 5 20.65 0 20.65 -4.95 14.6 -8.45Z"/><animate attributeName="display" repeatCount="indefinite" dur="1s" keyTimes="0;.033;1" values="inline;none;none"/></g></g><path fill="#FFF" stroke="none" d="M390.65 286.4L394.9 283.95 390.65 281.55 386.45 283.95 390.65 286.4Z"/><path fill="#FFF" stroke="none" d="M396.35 283.1L400.55 280.7 396.35 278.25 392.15 280.7 396.35 283.1Z"/><path fill="#FFF" stroke="none" d="M397.85 277.4L402.05 279.8 406.25 277.4 402.05 274.95 397.85 277.4Z"/><path fill="#FFF" stroke="none" d="M407.75 283.1L411.95 280.7 407.75 278.25 403.55 280.7 407.75 283.1Z"/><path fill="#FFF" stroke="none" d="M413.4 286.4L417.6 283.95 413.4 281.55 409.2 283.95 413.4 286.4Z"/><path fill="#FFF" stroke="none" d="M407.75 289.65L411.95 287.25 407.75 284.8 403.55 287.25 407.75 289.65Z"/><path fill="#FFF" stroke="none" d="M396.35 289.65L400.55 287.25 396.35 284.8 392.15 287.25 396.35 289.65Z"/><path fill="#FFF" stroke="none" d="M397.85 290.55L402.05 292.95 406.25 290.55 402.05 288.1 397.85 290.55Z"/><path fill="#FFF" stroke="none" d="M397.85 283.95L402.05 286.4 406.25 283.95 402.05 281.55 397.85 283.95Z"/><g id="22.ai_.__D0.__A1.__D0.__BB.__D0.__BE.__D0.__B9-1_.__3CPath.__3E_37" transform="translate(459.55 246.35)" opacity=".15"><path fill="#000" stroke="none" d="M23.25 9.4Q23.25 8.45 22.1 7.8L8.55 0 0 7.9 9.4 13.35Q9.3 13.3 8.3 13.8 7.15 14.5 7.2 15.4 7.2 16.35 8.35 17 9.55 17.7 11.1 17.75 12.7 17.75 13.8 17.1 14.9 16.45 14.85 15.55 14.8 14.65 13.65 13.95L3.9 8.35 10.1 2.75 17.85 7.2 16.6 7.7Q15.5 8.35 15.5 9.3 15.5 10.3 16.65 10.95 17.8 11.6 19.45 11.65 21.05 11.65 22.15 11 23.3 10.35 23.25 9.4Z"/></g><g id="22.ai_.__D0.__A1.__D0.__BB.__D0.__BE.__D0.__B9-1_.__3CGroup.__3E_11" transform="translate(426.4 263.25)" opacity=".15"><path fill="#000" stroke="none" d="M34.1 7.3L21.4 0 15.3 3.5 12.45 1.9 3.3 7.15 6.1 8.8 0 12.3 12.7 19.65 34.1 7.3M24.1 9.7Q24.1 11.5 21.85 12.75 19.65 14.05 16.5 14.05 13.35 14.05 11.15 12.75 8.95 11.5 8.95 9.7 8.95 7.9 11.15 6.6 13.35 5.3 16.5 5.3 19.65 5.3 21.85 6.6 24.1 7.9 24.1 9.7Z"/><path fill="#000" stroke="none" d="M22.55 9.7Q22.55 8.2 20.8 7.2 19.05 6.2 16.55 6.2 14 6.2 12.25 7.2 10.45 8.2 10.45 9.7 10.45 11.15 12.25 12.15 14 13.15 16.55 13.15 19.05 13.15 20.8 12.15 22.55 11.15 22.55 9.7Z"/></g><g id="22.ai_.__D0.__A1.__D0.__BB.__D0.__BE.__D0.__B9-1_.__3CCompound-Path.__3E_1" transform="translate(354.9 306.3)" opacity=".15"><path fill="#000" stroke="none" d="M31.8 8.1Q32.25 7.8 32.2 7.35 32.1 6.9 31.6 6.6L20.55 .2Q19.55 -.35 18.4 .35L.65 10.6Q-.5 11.3 .4 11.85L11.45 18.25Q11.95 18.5 12.75 18.55 13.6 18.6 14.05 18.35L31.8 8.1M19.75 11.3Q19.4 11.55 18.85 11.55L3.55 11.7Q2.3 11.7 2.3 11 2.35 10.7 2.7 10.5 3.1 10.25 3.6 10.25L17.7 10.1 17.95 1.75Q17.95 1.05 19.2 1.05 20.4 1.05 20.4 1.75L20.15 10.8Q20.15 11.15 19.75 11.3Z"/></g><g id="22.ai_.__D0.__A1.__D0.__BB.__D0.__BE.__D0.__B9-1_.__3CGroup.__3E_12" transform="translate(325.2 327.1)" opacity=".15"><path fill="#000" stroke="none" d="M18.3 7.15L17.9 7.05Q15.1 6.2 12.1 7.2L11.85 7.3 11.6 7.45Q11.25 8.7 9.7 9.6 8.05 10.5 6.1 10.65 4.7 11.7 4.8 12.95 4.9 14.25 6.5 15.2L9.85 17.1 22.65 9.7 19.3 7.8Q18.85 7.45 18.6 7.35L18.3 7.15Z"/><path fill="#000" stroke="none" d="M29.35 5.85L26.05 3.9Q24.5 3 22.35 2.95 20.3 2.85 18.5 3.55 18.2 4.7 16.8 5.45 19.35 5.7 21.15 6.7L24.5 8.65 29.35 5.85Z"/><path fill="#000" stroke="none" d="M8.35 .85Q6.75 1.8 6.9 3.15 8.6 3.45 9.7 4.1 10.95 4.9 11.4 5.75 13.8 5.85 15.4 4.9 16.85 4.1 16.85 2.9 16.85 1.7 15.4 .85 13.95 0 11.9 0 9.8 0 8.35 .85Z"/><path fill="#000" stroke="none" d="M8.5 4.75L7.7 4.4Q6.65 4.05 5.45 3.95 3.2 3.8 1.45 4.75 0 5.6 0 6.8 0 8 1.45 8.85 2.9 9.7 5 9.7 7.05 9.7 8.5 8.85 10.1 7.9 9.95 6.55 9.8 5.85 9.15 5.25L8.5 4.75Z"/><path fill="#000" stroke="none" d="M16.85 2.9Q16.85 1.7 15.4 .85 13.95 0 11.9 0 9.8 0 8.35 .85 6.75 1.8 6.9 3.15 8.6 3.45 9.7 4.1 10.95 4.9 11.4 5.75 13.8 5.85 15.4 4.9 16.85 4.1 16.85 2.9Z"/></g><path fill="#FFF" stroke="none" d="M477.4 250.55L476.15 251.05Q475.05 251.7 475.05 252.65 475.05 253.65 476.2 254.3 477.35 254.95 479 255 480.6 255 481.7 254.35 482.85 253.7 482.8 252.75 482.8 251.8 481.65 251.15L468.1 243.35 459.55 251.25 468.95 256.7Q468.85 256.65 467.85 257.15 466.7 257.85 466.75 258.75 466.75 259.7 467.9 260.35 469.1 261.05 470.65 261.1 472.25 261.1 473.35 260.45 474.45 259.8 474.4 258.9 474.35 258 473.2 257.3L463.45 251.7 469.65 246.1 477.4 250.55Z"/><path fill="#FFF" stroke="none" d="M441.7 263.75L438.85 262.15 429.7 267.4 432.5 269.05 426.4 272.55 439.1 279.9 460.5 267.55 447.8 260.25 441.7 263.75M435.35 269.95Q435.35 268.15 437.55 266.85 439.75 265.55 442.9 265.55 446.05 265.55 448.25 266.85 450.5 268.15 450.5 269.95 450.5 271.75 448.25 273 446.05 274.3 442.9 274.3 439.75 274.3 437.55 273 435.35 271.75 435.35 269.95Z"/><path fill="#FFF" stroke="none" d="M438.65 272.35Q440.4 273.35 442.95 273.35 445.45 273.35 447.2 272.35 448.95 271.35 448.95 269.9 448.95 268.4 447.2 267.4 445.45 266.4 442.95 266.4 440.4 266.4 438.65 267.4 436.85 268.4 436.85 269.9 436.85 271.35 438.65 272.35Z"/><path fill="#FFF" stroke="none" d="M386.7 311.4Q387.15 311.1 387.1 310.65 387 310.2 386.5 309.9L375.45 303.5Q374.45 302.95 373.3 303.65L355.55 313.9Q354.4 314.6 355.3 315.15L366.35 321.55Q366.85 321.8 367.65 321.85 368.5 321.9 368.95 321.65L386.7 311.4M372.85 305.05Q372.85 304.35 374.1 304.35 375.3 304.35 375.3 305.05L375.05 314.1Q375.05 314.45 374.65 314.6 374.3 314.85 373.75 314.85L358.45 315Q357.2 315 357.2 314.3 357.25 314 357.6 313.8 358 313.55 358.5 313.55L372.6 313.4 372.85 305.05Z"/><path fill="#FFF" stroke="none" d="M337.25 331.3L337 331.4 336.75 331.55Q336.4 332.8 334.85 333.7 333.2 334.6 331.25 334.75 329.85 335.8 329.95 337.05 330.05 338.35 331.65 339.3L335 341.2 347.8 333.8 344.45 331.9Q344 331.55 343.75 331.45L343.45 331.25 343.05 331.15Q340.25 330.3 337.25 331.3Z"/><path fill="#FFF" stroke="none" d="M354.55 329.95L351.25 328Q349.7 327.1 347.55 327.05 345.5 326.95 343.7 327.65 343.4 328.8 342 329.55 344.55 329.8 346.35 330.8L349.7 332.75 354.55 329.95Z"/><path fill="#FFF" stroke="none" d="M333.55 324.95Q331.95 325.9 332.1 327.25 333.8 327.55 334.9 328.2 336.15 329 336.6 329.85 339 329.95 340.6 329 342.05 328.2 342.05 327 342.05 325.8 340.6 324.95 339.15 324.1 337.1 324.1 335 324.1 333.55 324.95Z"/><path fill="#FFF" stroke="none" d="M335.1 330.7Q334.95 330 334.3 329.4L333.65 328.9 332.85 328.55Q331.8 328.2 330.6 328.1 328.35 327.95 326.6 328.9 325.15 329.75 325.15 330.95 325.15 332.15 326.6 333 328.05 333.85 330.15 333.85 332.2 333.85 333.65 333 335.25 332.05 335.1 330.7Z"/><path fill="#FFF" stroke="none" d="M342.05 327Q342.05 325.8 340.6 324.95 339.15 324.1 337.1 324.1 335 324.1 333.55 324.95 331.95 325.9 332.1 327.25 333.8 327.55 334.9 328.2 336.15 329 336.6 329.85 339 329.95 340.6 329 342.05 328.2 342.05 327Z"/><path fill="#282F39" stroke="none" d="M354 208.45L346.6 212.7 309.9 191.55 301.45 196.45 302.65 197.15 309.55 193.15 316.9 197.4 310 201.4 311.85 202.45 318.7 198.45 345 213.65 331.8 221.3 333.6 222.35 365.4 204 363.55 202.95 355.6 207.55 312.2 182.45 303.7 187.35 295.75 182.75 282.55 190.4 306.4 204.2 302.65 206.3 266 185.15 252.75 192.8 301.05 220.65 294.7 224.35 260.45 204.55 252.5 209.15 246.4 205.6 232.1 213.9 275.5 238.95 268.65 242.9 233.15 222.45 218.85 230.7 247 246.95 235.35 253.65 256.15 265.65 247.65 270.55 249.5 271.6 259.55 265.8 238.75 253.8 250.4 247.1 222.3 230.85 233.4 224.4 268.25 244.55 278.35 238.75 235.5 214 246.65 207.6 252.75 211.15 260.7 206.55 294.95 226.3 304.5 220.8 255.55 192.55 265.6 186.75 302.9 208.3 309.8 204.3 285.95 190.55 296 184.75 303.95 189.35 312.45 184.45 354 208.45Z"/><path fill="#282F39" stroke="none" d="M371.5 207.55L370.3 206.8 302.5 245.95 297.6 243.15 317.75 231.5 315.9 230.45 295.75 242.1 290.25 238.9 310.4 227.3 308.55 226.2 288.45 237.85 248.05 214.55 246.5 215.45 300.9 246.9 280.25 258.8 256.4 245.05 254.8 245.95 260.3 249.15 250.25 254.95 252.1 256 262.15 250.2 266.45 252.65 256.4 258.45 257.6 259.15 267.65 253.35 278.65 259.7 253.8 274.1 255 274.8 371.5 207.55Z"/><path fill="#FFF" stroke="none" d="M354 207.45L346.6 211.7 309.9 190.55 301.45 195.45 302.65 196.15 309.55 192.15 316.9 196.4 310 200.4 311.85 201.45 318.7 197.45 345 212.65 331.8 220.3 333.6 221.35 365.4 203 363.55 201.95 355.6 206.55 312.2 181.45 303.7 186.35 295.75 181.75 282.55 189.4 306.4 203.2 302.65 205.3 266 184.15 252.75 191.8 301.05 219.65 294.7 223.35 260.45 203.55 252.5 208.15 246.4 204.6 232.1 212.9 275.5 237.95 268.65 241.9 233.15 221.45 218.85 229.7 247 245.95 235.35 252.65 256.15 264.65 247.65 269.55 249.5 270.6 259.55 264.8 238.75 252.8 250.4 246.1 222.3 229.85 233.4 223.4 268.25 243.55 278.35 237.75 235.5 213 246.65 206.6 252.75 210.15 260.7 205.55 294.95 225.3 304.5 219.8 255.55 191.55 265.6 185.75 302.9 207.3 309.8 203.3 285.95 189.55 296 183.75 303.95 188.35 312.45 183.45 354 207.45Z"/><path fill="#FFF" stroke="none" d="M371.5 206.55L370.3 205.8 302.5 244.95 297.6 242.15 317.75 230.5 315.9 229.45 295.75 241.1 290.25 237.9 310.4 226.3 308.55 225.2 288.45 236.85 248.05 213.55 246.5 214.45 300.9 245.9 280.25 257.8 256.4 244.05 254.8 244.95 260.3 248.15 250.25 253.95 252.1 255 262.15 249.2 266.45 251.65 256.4 257.45 257.6 258.15 267.65 252.35 278.65 258.7 253.8 273.1 255 273.8 371.5 206.55Z"/><g display="none"><g transform="matrix(.862 .504 -.864 .5 -177.75 97.55)" id="Layer34_0_FILL"><path fill="#9586C3" fill-opacity=".298" stroke="none" d="M245.05 -230Q230 -230 230 -214.95L230 -65.05Q230 -50 245.05 -50L394.95 -50Q410 -50 410 -65.05L410 -214.95Q410 -230 394.95 -230L245.05 -230Z"/></g><animate attributeName="display" repeatCount="indefinite" dur="2.5s" keyTimes="0;.44;1" values="none;inline;inline"/></g><g display="none" id="Layer33_0_FILL"><path fill="#9687C3" fill-opacity=".298" stroke="none" d="M357.85 197.6Q370.45 190.25 357.85 182.9 295.2 146.25 232.5 109.6 219.85 102.3 207.2 109.65 144.35 146.05 81.5 182.45 68.9 189.8 81.5 197.15 144.2 233.8 206.9 270.4 219.5 277.75 232.15 270.4 295.05 234 357.85 197.6Z"/><animate attributeName="display" repeatCount="indefinite" dur="2.5s" keyTimes="0;.427;.44;1" values="none;inline;none;none"/></g><g display="none" id="Layer32_0_FILL"><path fill="#9788C3" fill-opacity=".298" stroke="none" d="M354.3 198.6Q366.5 191.45 354.3 184.25 293.55 148.75 232.75 113.3 220.45 106.2 208.15 113.35 147.2 148.65 86.3 183.95 74.05 191.1 86.35 198.2 147.05 233.75 207.85 269.2 220.15 276.3 232.45 269.15 293.4 233.9 354.3 198.6Z"/><animate attributeName="display" repeatCount="indefinite" dur="2.5s" keyTimes="0;.413;.427;1" values="none;inline;none;none"/></g><g display="none" id="Layer31_0_FILL"><path fill="#988AC3" fill-opacity=".298" stroke="none" d="M350.7 199.55Q362.6 192.6 350.7 185.65 291.9 151.3 233 116.95 221.05 110.1 209.05 117.05 150.05 151.25 91.1 185.4 79.25 192.4 91.15 199.3 149.95 233.7 208.85 268 220.8 274.9 232.75 267.95 291.8 233.75 350.7 199.55Z"/><animate attributeName="display" repeatCount="indefinite" dur="2.5s" keyTimes="0;.4;.413;1" values="none;inline;none;none"/></g><g display="none" id="Layer30_0_FILL"><path fill="#998BC3" fill-opacity=".298" stroke="none" d="M347.15 200.55Q358.65 193.75 347.15 187.05 290.25 153.8 233.25 120.6 221.65 114 210 120.75 152.9 153.8 95.9 186.9 84.4 193.65 95.95 200.35 152.85 233.65 209.85 266.8 221.45 273.45 233.05 266.7 290.2 233.6 347.15 200.55Z"/><animate attributeName="display" repeatCount="indefinite" dur="2.5s" keyTimes="0;.387;.4;1" values="none;inline;none;none"/></g><g display="none" id="Layer29_0_FILL"><path fill="#998CC3" fill-opacity=".298" stroke="none" d="M343.6 201.5Q354.7 194.95 343.55 188.4 288.6 156.3 233.5 124.25 222.2 117.9 210.95 124.45 155.75 156.4 100.7 188.4 89.6 194.95 100.75 201.45 155.7 233.6 210.8 265.6 222.05 272 233.35 265.45 288.6 233.5 343.6 201.5Z"/><animate attributeName="display" repeatCount="indefinite" dur="2.5s" keyTimes="0;.373;.387;1" values="none;inline;none;none"/></g><g display="none" id="Layer28_0_FILL"><path fill="#9A8DC2" fill-opacity=".298" stroke="none" d="M340.05 202.5Q350.75 196.1 340 189.8 286.95 158.8 233.8 127.95 222.8 121.8 211.9 128.15 158.6 159 105.5 189.9 94.75 196.25 105.6 202.55 158.6 233.55 211.8 264.4 222.7 270.55 233.65 264.2 286.95 233.35 340.05 202.5Z"/><animate attributeName="display" repeatCount="indefinite" dur="2.5s" keyTimes="0;.36;.373;1" values="none;inline;none;none"/></g><g display="none" id="Layer27_0_FILL"><path fill="#9B8EC2" fill-opacity=".298" stroke="none" d="M336.45 203.45Q346.8 197.3 336.4 191.15 285.3 161.3 234.05 131.6 223.4 125.7 212.8 131.85 161.45 161.6 110.3 191.35 99.95 197.55 110.4 203.6 161.5 233.5 212.75 263.2 223.35 269.1 233.95 262.95 285.35 233.25 336.45 203.45Z"/><animate attributeName="display" repeatCount="indefinite" dur="2.5s" keyTimes="0;.347;.36;1" values="none;inline;none;none"/></g><g display="none" id="Layer26_0_FILL"><path fill="#9C90C2" fill-opacity=".298" stroke="none" d="M332.9 204.45Q342.9 198.45 332.85 192.55 283.65 163.8 234.3 135.25 224 129.6 213.75 135.55 164.3 164.2 115.1 192.85 105.15 198.85 115.2 204.7 164.4 233.45 213.75 262 224 267.7 234.25 261.75 283.75 233.1 332.9 204.45Z"/><animate attributeName="display" repeatCount="indefinite" dur="2.5s" keyTimes="0;.333;.347;1" values="none;inline;none;none"/></g><g display="none" id="Layer25_0_FILL"><path fill="#9D91C2" fill-opacity=".298" stroke="none" d="M329.35 205.4Q338.95 199.6 329.25 193.95 282.05 166.35 234.55 138.9 224.6 133.5 214.7 139.25 167.15 166.8 119.9 194.35 110.3 200.15 120 205.75 167.25 233.4 214.75 260.8 224.65 266.25 234.55 260.5 282.15 232.95 329.35 205.4Z"/><animate attributeName="display" repeatCount="indefinite" dur="2.5s" keyTimes="0;.32;.333;1" values="none;inline;none;none"/></g><g display="none" id="Layer24_0_FILL"><path fill="#9E92C2" fill-opacity=".298" stroke="none" d="M325.8 206.4Q335 200.8 325.7 195.3 280.4 168.85 234.8 142.6 225.2 137.4 215.65 142.95 170 169.35 124.7 195.85 115.5 201.4 124.85 206.85 170.15 233.35 215.7 259.6 225.3 264.8 234.85 259.25 280.5 232.85 325.8 206.4Z"/><animate attributeName="display" repeatCount="indefinite" dur="2.5s" keyTimes="0;.307;.32;1" values="none;inline;none;none"/></g><g display="none" id="Layer23_0_FILL"><path fill="#9F93C2" fill-opacity=".298" stroke="none" d="M235.05 146.25Q225.8 141.3 216.55 146.65 172.85 171.95 129.5 197.3 120.65 202.7 129.65 207.95 173.05 233.3 216.7 258.4 225.95 263.35 235.15 258 278.9 232.7 322.25 207.35 331.05 201.95 322.1 196.7 278.75 171.35 235.05 146.25Z"/><animate attributeName="display" repeatCount="indefinite" dur="2.5s" keyTimes="0;.293;.307;1" values="none;inline;none;none"/></g><g display="none" id="Layer22_0_FILL"><path fill="#A095C2" fill-opacity=".298" stroke="none" d="M235.3 149.9Q226.4 145.2 217.5 150.35 175.7 174.55 134.3 198.8 125.85 204 134.45 209 175.9 233.25 217.7 257.2 226.6 261.95 235.45 256.8 277.3 232.55 318.65 208.3 327.15 203.1 318.55 198.1 277.1 173.85 235.3 149.9Z"/><animate attributeName="display" repeatCount="indefinite" dur="2.5s" keyTimes="0;.28;.293;1" values="none;inline;none;none"/></g><g display="none" id="Layer21_0_FILL"><path fill="#A096C2" fill-opacity=".298" stroke="none" d="M235.55 153.6Q226.95 149.1 218.45 154.05 178.55 177.15 139.1 200.3 131 205.3 139.3 210.1 178.8 233.2 218.65 256 227.2 260.5 235.75 255.55 275.65 232.45 315.1 209.3 323.2 204.3 314.95 199.45 275.45 176.35 235.55 153.6Z"/><animate attributeName="display" repeatCount="indefinite" dur="2.5s" keyTimes="0;.267;.28;1" values="none;inline;none;none"/></g><g display="none" id="Layer20_0_FILL"><path fill="#A197C2" fill-opacity=".298" stroke="none" d="M235.8 157.25Q227.55 153 219.4 157.75 181.4 179.75 143.9 201.8 136.2 206.6 144.1 211.15 181.7 233.15 219.65 254.8 227.85 259.05 236.05 254.3 274.05 232.3 311.55 210.25 319.25 205.45 311.4 200.85 273.8 178.9 235.8 157.25Z"/><animate attributeName="display" repeatCount="indefinite" dur="2.5s" keyTimes="0;.253;.267;1" values="none;inline;none;none"/></g><g display="none" id="Layer19_0_FILL"><path fill="#A298C2" fill-opacity=".298" stroke="none" d="M236.05 160.9Q228.15 156.9 220.3 161.45 184.25 182.35 148.7 203.25 141.4 207.9 148.9 212.25 184.55 233.1 220.65 253.6 228.5 257.6 236.35 253.05 272.45 232.15 308 211.25 315.3 206.6 307.8 202.25 272.15 181.4 236.05 160.9Z"/><animate attributeName="display" repeatCount="indefinite" dur="2.5s" keyTimes="0;.24;.253;1" values="none;inline;none;none"/></g><g display="none" id="Layer18_0_FILL"><path fill="#A399C2" fill-opacity=".298" stroke="none" d="M236.3 164.55Q228.75 160.8 221.25 165.15 187.1 184.95 153.5 204.75 146.55 209.2 153.7 213.35 187.45 233.05 221.6 252.4 229.15 256.15 236.65 251.8 270.85 232.05 304.45 212.2 311.35 207.8 304.25 203.6 270.5 183.9 236.3 164.55Z"/><animate attributeName="display" repeatCount="indefinite" dur="2.5s" keyTimes="0;.227;.24;1" values="none;inline;none;none"/></g><g display="none" id="Layer17_0_FILL"><path fill="#A49BC1" fill-opacity=".298" stroke="none" d="M236.6 168.25Q229.35 164.7 222.2 168.85 189.95 187.5 158.25 206.25 151.75 210.45 158.55 214.4 190.35 233.05 222.6 251.15 229.8 254.75 236.95 250.6 269.2 231.9 300.85 213.2 307.45 208.95 300.65 205 268.85 186.4 236.6 168.25Z"/><animate attributeName="display" repeatCount="indefinite" dur="2.5s" keyTimes="0;.213;.227;1" values="none;inline;none;none"/></g><g display="none" id="Layer16_0_FILL"><path fill="#A59CC1" fill-opacity=".298" stroke="none" d="M236.85 171.9Q229.95 168.6 223.15 172.55 192.8 190.1 163.05 207.75 156.9 211.75 163.35 215.5 193.25 233 223.55 249.95 230.45 253.3 237.25 249.35 267.6 231.8 297.3 214.15 303.5 210.15 297.1 206.35 267.2 188.9 236.85 171.9Z"/><animate attributeName="display" repeatCount="indefinite" dur="2.5s" keyTimes="0;.2;.213;1" values="none;inline;none;none"/></g><g display="none" id="Layer15_0_FILL"><path fill="#A69DC1" fill-opacity=".298" stroke="none" d="M237.1 175.55Q230.55 172.5 224.05 176.25 195.65 192.7 167.85 209.2 162.1 213.05 168.15 216.6 196.1 232.95 224.55 248.75 231.1 251.85 237.55 248.1 266 231.65 293.75 215.15 299.55 211.3 293.5 207.75 265.55 191.4 237.1 175.55Z"/><animate attributeName="display" repeatCount="indefinite" dur="2.5s" keyTimes="0;.187;.2;1" values="none;inline;none;none"/></g><g display="none" id="Layer14_0_FILL"><path fill="#A79EC1" fill-opacity=".298" stroke="none" d="M237.35 179.2Q231.15 176.4 225 179.95 198.5 195.3 172.65 210.7 167.3 214.35 172.95 217.65 199 232.9 225.55 247.55 231.75 250.4 237.85 246.85 264.4 231.5 290.2 216.1 295.6 212.45 289.95 209.15 263.9 193.95 237.35 179.2Z"/><animate attributeName="display" repeatCount="indefinite" dur="2.5s" keyTimes="0;.173;.187;1" values="none;inline;none;none"/></g><g display="none" id="Layer13_0_FILL"><path fill="#A79FC1" fill-opacity=".298" stroke="none" d="M237.6 182.9Q231.7 180.3 225.95 183.65 201.35 197.9 177.45 212.2 172.45 215.65 177.8 218.75 201.9 232.85 226.5 246.35 232.35 248.95 238.15 245.6 262.75 231.4 286.65 217.1 291.65 213.65 286.35 210.5 262.25 196.45 237.6 182.9Z"/><animate attributeName="display" repeatCount="indefinite" dur="2.5s" keyTimes="0;.16;.173;1" values="none;inline;none;none"/></g><g display="none" id="Layer12_0_FILL"><path fill="#A8A1C1" fill-opacity=".298" stroke="none" d="M237.85 186.55Q232.3 184.2 226.9 187.35 204.2 200.5 182.25 213.7 177.65 216.95 182.6 219.8 204.75 232.8 227.5 245.15 233 247.55 238.45 244.4 261.15 231.25 283.05 218.05 287.75 214.8 282.8 211.9 260.6 198.95 237.85 186.55Z"/><animate attributeName="display" repeatCount="indefinite" dur="2.5s" keyTimes="0;.147;.16;1" values="none;inline;none;none"/></g><g display="none" id="Layer11_0_FILL"><path fill="#A9A2C1" fill-opacity=".298" stroke="none" d="M238.1 190.2Q232.9 188.1 227.8 191.05 207.05 203.1 187.05 215.15 182.8 218.25 187.4 220.9 207.65 232.75 228.5 243.95 233.65 246.1 238.75 243.15 259.55 231.1 279.5 219 283.8 215.95 279.2 213.3 258.95 201.45 238.1 190.2Z"/><animate attributeName="display" repeatCount="indefinite" dur="2.5s" keyTimes="0;.133;.147;1" values="none;inline;none;none"/></g><g display="none" id="Layer10_0_FILL"><path fill="#AAA3C1" fill-opacity=".298" stroke="none" d="M238.35 193.9Q233.5 192 228.75 194.75 209.9 205.65 191.85 216.65 188 219.5 192.25 222 210.55 232.7 229.45 242.75 234.3 244.65 239.05 241.9 257.9 231 275.95 220 279.85 217.15 275.65 214.65 257.3 203.95 238.35 193.9Z"/><animate attributeName="display" repeatCount="indefinite" dur="2.5s" keyTimes="0;.12;.133;1" values="none;inline;none;none"/></g><g display="none" id="Layer9_0_FILL"><path fill="#ABA4C1" fill-opacity=".298" stroke="none" d="M272.4 220.95Q275.9 218.3 272.05 216.05 255.7 206.5 238.6 197.55 234.1 195.9 229.7 198.45 212.75 208.25 196.65 218.15 193.15 220.8 197.05 223.05 213.4 232.65 230.45 241.55 234.95 243.2 239.35 240.65 256.3 230.85 272.4 220.95Z"/><animate attributeName="display" repeatCount="indefinite" dur="2.5s" keyTimes="0;.107;.12;1" values="none;inline;none;none"/></g><g display="none" id="Layer8_0_FILL"><path fill="#ACA6C1" fill-opacity=".298" stroke="none" d="M268.85 221.95Q272 219.45 268.5 217.45 254.05 209 238.85 201.2 234.7 199.8 230.65 202.15 215.6 210.85 201.45 219.65 198.35 222.1 201.85 224.15 216.3 232.6 231.45 240.35 235.6 241.8 239.65 239.45 254.7 230.7 268.85 221.95Z"/><animate attributeName="display" repeatCount="indefinite" dur="2.5s" keyTimes="0;.093;.107;1" values="none;inline;none;none"/></g><g display="none" id="Layer7_0_FILL"><path fill="#ADA7C1" fill-opacity=".298" stroke="none" d="M265.25 222.9Q268.05 220.65 264.9 218.8 252.4 211.5 239.1 204.85 235.3 203.7 231.55 205.85 218.45 213.45 206.25 221.1 203.55 223.4 206.65 225.2 219.2 232.55 232.4 239.15 236.25 240.35 239.95 238.2 253.1 230.6 265.25 222.9Z"/><animate attributeName="display" repeatCount="indefinite" dur="2.5s" keyTimes="0;.08;.093;1" values="none;inline;none;none"/></g><g display="none" id="Layer6_0_FILL"><path fill="#AEA8C0" fill-opacity=".298" stroke="none" d="M261.7 223.9Q264.1 221.8 261.35 220.2 250.75 214 239.4 208.55 235.9 207.6 232.5 209.55 221.3 216.05 211.05 222.6 208.7 224.7 211.5 226.3 222.1 232.5 233.4 237.95 236.9 238.9 240.25 236.95 251.45 230.45 261.7 223.9Z"/><animate attributeName="display" repeatCount="indefinite" dur="2.5s" keyTimes="0;.067;.08;1" values="none;inline;none;none"/></g><g display="none" id="Layer5_0_FILL"><path fill="#AEA9C0" fill-opacity=".298" stroke="none" d="M258.15 224.85Q260.15 223 257.75 221.55 249.1 216.5 239.65 212.2 236.45 211.5 233.45 213.25 224.15 218.65 215.85 224.1 213.9 226 216.3 227.4 224.95 232.45 234.35 236.75 237.5 237.45 240.55 235.7 249.85 230.35 258.15 224.85Z"/><animate attributeName="display" repeatCount="indefinite" dur="2.5s" keyTimes="0;.053;.067;1" values="none;inline;none;none"/></g><g display="none" id="Layer4_0_FILL"><path fill="#AFAAC0" fill-opacity=".298" stroke="none" d="M254.6 225.85Q256.2 224.15 254.2 222.95 247.45 219 239.9 215.85 237.05 215.4 234.4 216.95 227 221.2 220.65 225.6 219.05 227.25 221.1 228.45 227.85 232.4 235.35 235.55 238.15 236 240.85 234.45 248.25 230.2 254.6 225.85Z"/><animate attributeName="display" repeatCount="indefinite" dur="2.5s" keyTimes="0;.04;.053;1" values="none;inline;none;none"/></g><g display="none" id="Layer3_0_FILL"><path fill="#B0ACC0" fill-opacity=".298" stroke="none" d="M251 226.8Q252.3 225.3 250.6 224.35 245.8 221.55 240.15 219.5 237.65 219.3 235.3 220.65 229.85 223.8 225.45 227.05 224.25 228.55 225.9 229.55 230.75 232.35 236.35 234.35 238.8 234.6 241.15 233.25 246.65 230.05 251 226.8Z"/><animate attributeName="display" repeatCount="indefinite" dur="2.5s" keyTimes="0;.027;.04;1" values="none;inline;none;none"/></g><g display="none" id="Layer2_0_FILL"><path fill="#B1ADC0" fill-opacity=".298" stroke="none" d="M247.45 227.8Q248.35 226.5 247.05 225.7 244.15 224.05 240.4 223.2 238.25 223.2 236.25 224.35 232.7 226.4 230.25 228.55 229.4 229.85 230.75 230.6 233.6 232.3 237.3 233.15 239.45 233.15 241.45 232 245 229.95 247.45 227.8Z"/><animate attributeName="display" repeatCount="indefinite" dur="2.5s" keyTimes="0;.013;.027;1" values="none;inline;none;none"/></g><g><g transform="matrix(.025 .015 -.044 .025 225.2 228.2)" id="Layer1_0_FILL"><path fill="#B2AEC0" fill-opacity=".298" stroke="none" d="M320 -230Q282.75 -230 256.35 -203.65 230 -177.25 230 -140 230 -102.75 256.35 -76.4 282.75 -50 320 -50 357.25 -50 383.6 -76.4 410 -102.75 410 -140 410 -177.25 383.6 -203.65 357.25 -230 320 -230Z"/></g><animate attributeName="display" repeatCount="indefinite" dur="2.5s" keyTimes="0;.013;1" values="inline;none;none"/></g><g display="none"><use xlink:href="#.__D0.__90.__D0.__BD.__D0.__B8.__D0.__BC.__D0.__B0.__D1.__86.__D0.__B8.__D1.__8F-2" transform="translate(294.05 179)"/><animate attributeName="display" repeatCount="indefinite" dur="2.5s" keyTimes="0;.987;1" values="none;inline;inline"/></g><g display="none"><g id=".__D0.__90.__D0.__BD.__D0.__B8.__D0.__BC.__D0.__B0.__D1.__86.__D0.__B8.__D1.__8F-3" transform="translate(294.05 45)"><animateTransform attributeName="transform" additive="replace" type="translate" repeatCount="indefinite" dur="2.5s" keyTimes="0;.467;.987;1" values="294.05,45;294.05,45;294.05,179;294.05,179"/><path fill="url(#Gradient_1)" stroke="none" d="M31.8 -31.85Q18.65 -45 0 -45 -18.65 -45 -31.85 -31.85 -45 -18.65 -45 0 -45 18.65 -31.85 31.8 -18.65 45 0 45 18.65 45 31.8 31.8 45 18.65 45 0 45 -18.65 31.8 -31.85Z"/></g><animate attributeName="display" repeatCount="indefinite" dur="2.5s" keyTimes="0;.467;.987;1" values="none;inline;none;none"/></g><g><use xlink:href="#.__D0.__90.__D0.__BD.__D0.__B8.__D0.__BC.__D0.__B0.__D1.__86.__D0.__B8.__D1.__8F-2" transform="translate(294.05 179)"><animateTransform attributeName="transform" additive="replace" type="translate" repeatCount="indefinite" dur="2.5s" keyTimes="0;.467;1" values="294.05,179;294.05,45;294.05,45"/></use><animate attributeName="display" repeatCount="indefinite" dur="2.5s" keyTimes="0;.467;1" values="inline;none;none"/></g></g></svg>