<?xml version="1.0" encoding="utf-8"?><svg id="phoneMes" image-rendering="auto" baseProfile="basic" version="1.1" x="0px" y="0px" width="583" height="440" viewBox="0 0 583 440" preserveAspectRatio="none"  xmlns="http://www.w3.org/2000/svg" xmlns:xlink="http://www.w3.org/1999/xlink"><defs><g id=".__D0.__A1.__D0.__B8.__D0.__BC.__D0.__B2.__D0.__BE.__D0.__BB-5" overflow="visible"><path fill="#FFF" stroke="none" d="M6.3 -14.7Q4.4 -15.8 1.9 -15.9 -.6 -16 -2.2 -15.05L-26.05 -1.3Q-27.7 -.35 -27.5 1.1 -27.35 2.5 -25.45 3.6L-6.25 14.7Q-4.4 15.8 -1.85 15.9 .65 16 2.3 15.05L26.1 1.3Q27.75 .35 27.55 -1.1 27.4 -2.55 25.5 -3.65L6.3 -14.7Z"/><path fill="#E1E822" stroke="none" d="M-2 -7.45Q-7.5 -7.7 -11.15 -5.6 -14.8 -3.5 -14.35 -.3 -13.95 2.9 -9.8 5.3 -5.6 7.75 -.05 7.95 5.45 8.2 9.1 6.1 12.75 4 12.35 .8 11.95 -2.35 7.75 -4.8 3.55 -7.25 -2 -7.45Z"/><path fill="#000" stroke="none" d="M-5.8 1.35Q-5.9 .75 -6.65 .3 -7.45 -.15 -8.45 -.2 -9.45 -.25 -10.15 .15 -10.85 .55 -10.75 1.15 -10.7 1.75 -9.9 2.2 -9.1 2.65 -8.1 2.7 -7.1 2.75 -6.4 2.35 -5.75 1.95 -5.8 1.35Z"/><path fill="#000" stroke="none" d="M2.95 -3.75Q2.9 -4.35 2.1 -4.8 1.35 -5.25 .3 -5.3 -.7 -5.35 -1.4 -4.95 -2.05 -4.55 -1.95 -3.95 -1.9 -3.35 -1.15 -2.95 -.35 -2.5 .65 -2.45 1.7 -2.4 2.35 -2.8 3.05 -3.15 2.95 -3.75Z"/><path fill="#000" stroke="none" d="M6.6 4.4Q8.65 3.25 8.8 1.6 9 -.1 7.25 -1.65L-3.9 4.75Q-1.15 5.75 1.75 5.65 4.6 5.55 6.6 4.4Z"/></g><linearGradient id="Gradient_1" gradientUnits="userSpaceOnUse" x1="-320.662" y1="-5.65" x2="320.662" y2="5.65" spreadMethod="pad"><stop offset="0%" stop-color="#1A92A6"/><stop offset="100%" stop-color="#46367D"/></linearGradient><linearGradient id="Gradient_2" gradientUnits="userSpaceOnUse" x1="421.900" y1="299.15" x2="476.7" y2="299.15" spreadMethod="pad"><stop offset="0%" stop-color="#0EABB1"/><stop offset="16.078%" stop-color="#11A5AE"/><stop offset="38.039%" stop-color="#1994A7"/><stop offset="63.137%" stop-color="#27779A"/><stop offset="90.588%" stop-color="#3A5089"/><stop offset="100%" stop-color="#414182"/></linearGradient><linearGradient id="Gradient_3" gradientUnits="userSpaceOnUse" x1="51.100" y1="200.2" x2="505.1" y2="200.2" spreadMethod="pad"><stop offset="0%" stop-color="#0EABB1"/><stop offset="13.725%" stop-color="#12A2AD"/><stop offset="36.078%" stop-color="#1E8BA3"/><stop offset="63.921%" stop-color="#306592"/><stop offset="96.078%" stop-color="#4A307B"/><stop offset="100%" stop-color="#4D2978"/></linearGradient><linearGradient id="Gradient_4" gradientUnits="userSpaceOnUse" x1="20.949" y1="258.65" x2="557.05" y2="258.65" spreadMethod="pad"><stop offset="0%" stop-color="#000" stop-opacity="0"/><stop offset="69.019%" stop-color="#BFC0C2" stop-opacity="0"/><stop offset="69.019%" stop-color="#BFC0C2"/><stop offset="77.254%" stop-color="#9D9EA3"/><stop offset="85.882%" stop-color="#72737A"/><stop offset="94.509%" stop-color="#3D3F4A"/><stop offset="100%" stop-color="#171926"/></linearGradient><linearGradient id="Gradient_5" gradientUnits="userSpaceOnUse" x1="20.949" y1="258.65" x2="557.05" y2="258.65" spreadMethod="pad"><stop offset="0%" stop-color="#171926"/><stop offset="1.960%" stop-color="#2F313C"/><stop offset="5.882%" stop-color="#5B5C65"/><stop offset="9.803%" stop-color="#828389"/><stop offset="14.509%" stop-color="#A2A3A7"/><stop offset="19.215%" stop-color="#BDBDC0"/><stop offset="24.313%" stop-color="#D1D2D3"/><stop offset="30.196%" stop-color="#E0E0E1"/><stop offset="37.254%" stop-color="#E8E8E9"/><stop offset="48.627%" stop-color="#EBEBEB"/><stop offset="54.509%" stop-color="#E6E6E6"/><stop offset="61.568%" stop-color="#D7D8D9"/><stop offset="69.019%" stop-color="#BFC0C2"/><stop offset="69.019%" stop-color="#BFC0C2" stop-opacity="0"/><stop offset="100%" stop-color="#000" stop-opacity="0"/></linearGradient><linearGradient id="Gradient_6" gradientUnits="userSpaceOnUse" x1="20.949" y1="258.65" x2="557.05" y2="258.65" spreadMethod="pad"><stop offset="0%" stop-color="#5DD6D2"/><stop offset="15.294%" stop-color="#5BD0CF"/><stop offset="36.078%" stop-color="#54BFC5"/><stop offset="60%" stop-color="#48A2B5"/><stop offset="85.882%" stop-color="#397B9F"/><stop offset="100%" stop-color="#2F6391"/></linearGradient><radialGradient id="Gradient_7" gradientUnits="userSpaceOnUse" cx="0" cy="0" r="317.241" fx="-61.429" fy="-86.075" gradientTransform="matrix(-.580 -.813 -.813 .580 313.8 79.85)" spreadMethod="pad"><stop offset="0%" stop-color="#000" stop-opacity="0"/><stop offset="83.921%" stop-color="#86878D" stop-opacity="0"/><stop offset="83.921%" stop-color="#86878D"/><stop offset="92.156%" stop-color="#51535D"/><stop offset="100%" stop-color="#171926"/></radialGradient><radialGradient id="Gradient_8" gradientUnits="userSpaceOnUse" cx="0" cy="0" r="317.241" fx="-61.429" fy="-86.075" gradientTransform="matrix(-.580 -.813 -.813 .580 313.8 79.85)" spreadMethod="pad"><stop offset="0%" stop-color="#171926"/><stop offset="4.705%" stop-color="#1D1F2C"/><stop offset="11.372%" stop-color="#2E303C"/><stop offset="18.823%" stop-color="#4B4C56"/><stop offset="26.666%" stop-color="#72747C"/><stop offset="35.686%" stop-color="#A5A6AB"/><stop offset="44.705%" stop-color="#E2E3E4"/><stop offset="48.627%" stop-color="#FFF"/><stop offset="54.117%" stop-color="#FAFAFA"/><stop offset="60.784%" stop-color="#EBEBED"/><stop offset="68.235%" stop-color="#D3D3D6"/><stop offset="75.686%" stop-color="#B1B2B6"/><stop offset="83.921%" stop-color="#86878D"/><stop offset="83.921%" stop-color="#86878D" stop-opacity="0"/><stop offset="100%" stop-color="#000" stop-opacity="0"/></radialGradient></defs><g id=".__D0.__9C.__D0.__BE.__D0.__BD.__D1.__82.__D0.__B0.__D0.__B6.__D0.__BD.__D1.__8B.__D0.__B9-.__D0.__BA.__D0.__B0.__D0.__B4.__D1.__80-1" overflow="visible"><g id="22.ai_.__D0.__A1.__D0.__BB.__D0.__BE.__D0.__B9-1_.__3CPath.__3E_31" transform="translate(0 104.5)" opacity=".26"><path fill="#000" stroke="none" d="M363.25 326.5Q374.5 333 389.45 333.6 404.4 334.25 414.15 328.6L569.25 239.05Q573.15 236.8 575.35 233.9 577.05 231.65 577.65 229.2 578.9 224.2 575.85 219.05 572.65 213.75 565.6 209.7L214.8 7.15Q203.55 .65 188.6 .05 173.65 -.55 163.9 5.05L8.8 94.6Q3.55 97.6 1.4 101.8 -.7 105.85 .4 110.3 1 112.85 2.7 115.4 5.9 120.2 12.45 123.95L363.25 326.5Z"/></g><path fill="#FFF" stroke="none" d="M382.05 361.2Q395.9 361.75 404.95 356.55L548.7 273.55Q552.25 271.5 554.35 268.8 551.25 264.25 545.3 260.85L220.25 73.15Q209.8 67.15 195.95 66.55 182.1 66 173.05 71.2L29.35 154.2Q25.75 156.25 23.7 159 26.7 163.4 32.7 166.9L357.8 354.6Q368.25 360.6 382.05 361.2Z"/><path fill="url(#Gradient_8)" stroke="none" d="M404.95 362Q395.9 367.2 382.05 366.65 368.25 366.05 357.8 360.05L32.7 172.35Q29.3 170.35 25.55 161.75 22 152.55 21.2 150.6 20.75 151.7 21.4 159.3 22.05 166.7 22.8 169.9 24.5 176.6 32.7 181.45L357.8 369.1Q368.2 375.15 382.05 375.7 395.9 376.25 404.95 371.05L548.7 288.1Q555.25 283.25 556.7 275.15 557.05 273.25 557.05 263.2 556.45 264.6 553.75 271.35 550.9 277.7 548.7 279L404.95 362Z"/><path fill="url(#Gradient_7)" stroke="none" d="M404.95 362Q395.9 367.2 382.05 366.65 368.25 366.05 357.8 360.05L32.7 172.35Q29.3 170.35 25.55 161.75 22 152.55 21.2 150.6 20.75 151.7 21.4 159.3 22.05 166.7 22.8 169.9 24.5 176.6 32.7 181.45L357.8 369.1Q368.2 375.15 382.05 375.7 395.9 376.25 404.95 371.05L548.7 288.1Q555.25 283.25 556.7 275.15 557.05 273.25 557.05 263.2 556.45 264.6 553.75 271.35 550.9 277.7 548.7 279L404.95 362Z"/><path fill="url(#Gradient_6)" stroke="none" d="M382.05 366.65Q395.9 367.2 404.95 362L548.7 279Q553.95 275.95 555.85 271.65 556.65 269.95 556.95 266.05 557.25 262.15 556.8 260.3 556.65 261.05 555.85 264.6 555 267.9 554.35 268.8 552.25 271.5 548.7 273.55L404.95 356.55Q395.9 361.75 382.05 361.2 368.25 360.6 357.8 354.6L32.7 166.9Q26.7 163.4 23.7 159 23.05 158.05 22.2 154.8 21.4 151.4 21.2 150.6 20.75 152.35 21.1 156.05 21.4 159.7 22.15 161.55 24.65 167.65 32.7 172.35L357.8 360.05Q368.25 366.05 382.05 366.65Z"/><path fill="url(#Gradient_5)" stroke="none" d="M382.05 366.65Q395.9 367.2 404.95 362L548.7 279Q553.95 275.95 555.85 271.65 556.65 269.95 556.95 266.05 557.25 262.15 556.8 260.3 556.65 261.05 555.85 264.6 555 267.9 554.35 268.8 552.25 271.5 548.7 273.55L404.95 356.55Q395.9 361.75 382.05 361.2 368.25 360.6 357.8 354.6L32.7 166.9Q26.7 163.4 23.7 159 23.05 158.05 22.2 154.8 21.4 151.4 21.2 150.6 20.75 152.35 21.1 156.05 21.4 159.7 22.15 161.55 24.65 167.65 32.7 172.35L357.8 360.05Q368.25 366.05 382.05 366.65Z"/><path fill="url(#Gradient_4)" stroke="none" d="M382.05 366.65Q395.9 367.2 404.95 362L548.7 279Q553.95 275.95 555.85 271.65 556.65 269.95 556.95 266.05 557.25 262.15 556.8 260.3 556.65 261.05 555.85 264.6 555 267.9 554.35 268.8 552.25 271.5 548.7 273.55L404.95 356.55Q395.9 361.75 382.05 361.2 368.25 360.6 357.8 354.6L32.7 166.9Q26.7 163.4 23.7 159 23.05 158.05 22.2 154.8 21.4 151.4 21.2 150.6 20.75 152.35 21.1 156.05 21.4 159.7 22.15 161.55 24.65 167.65 32.7 172.35L357.8 360.05Q368.25 366.05 382.05 366.65Z"/><path fill="#FFF" stroke="none" d="M382.05 361.2Q395.9 361.75 404.95 356.55L548.7 273.55Q552.25 271.5 554.35 268.8 555.9 266.75 556.5 264.45 555.65 261 552.85 257.8 549.95 254.5 545.3 251.8L220.25 64.1Q209.85 58.05 195.95 57.5 182.1 56.95 173.05 62.15L29.35 145.15Q22.95 148.8 21.55 154.25 22.2 156.75 23.7 159 26.7 163.4 32.7 166.9L357.8 354.6Q368.25 360.6 382.05 361.2Z"/><path fill="#F7FAFA" stroke="none" d="M382.05 361.2Q395.9 361.75 404.95 356.55L548.7 273.55Q552.25 271.5 554.35 268.8 555.9 266.75 556.5 264.45 557.7 259.8 554.8 255.05 551.85 250.1 545.3 246.35L220.25 58.65Q209.8 52.65 195.95 52.05 182.1 51.5 173.05 56.7L29.35 139.7Q24.5 142.5 22.5 146.4 20.55 150.1 21.55 154.25 22.2 156.75 23.7 159 26.7 163.4 32.7 166.9L357.8 354.6Q368.25 360.6 382.05 361.2Z"/><path fill="#F7FAFA" stroke="none" d="M382.05 361.2Q395.9 361.75 404.95 356.55L548.7 273.55Q552.25 271.5 554.35 268.8 555.9 266.75 556.5 264.45 557.7 259.8 554.8 255.05 551.85 250.1 545.3 246.35L220.25 58.65Q209.8 52.65 195.95 52.05 182.1 51.5 173.05 56.7L29.35 139.7Q24.5 142.5 22.5 146.4 20.55 150.1 21.55 154.25 22.2 156.75 23.7 159 26.7 163.4 32.7 166.9L357.8 354.6Q368.25 360.6 382.05 361.2Z"/><path fill="#3B4C86" stroke="none" d="M336.45 334.45L510.4 234 219.45 66.05 45.55 166.45 336.45 334.45Z"/><path fill="url(#Gradient_3)" stroke="none" d="M336.5 331.25L505.1 233.9 219.7 69.15 51.1 166.5 336.5 331.25Z"/><g id="22.ai_.__D0.__A1.__D0.__BB.__D0.__BE.__D0.__B9-1_.__3CPath.__3E_32" transform="translate(334.55 228.4)" opacity=".14"><path fill="#000" stroke="none" d="M133.4 30.1Q129.1 19.35 115.35 11.4 95.55 -.05 67.6 -.05 39.6 -.05 19.8 11.4 0 22.85 0 39 0 55.15 19.8 66.6 33.4 74.45 52.2 77L133.4 30.1Z"/></g><g id="22.ai_.__D0.__A1.__D0.__BB.__D0.__BE.__D0.__B9-1_.__3CPath.__3E_33" transform="translate(358.8 242.4)" opacity=".19"><path fill="#000" stroke="none" d="M85.95 29.5Q87.85 23.55 84.85 17.75 81.7 11.75 74 7.3 61.3 0 43.35 0 25.4 0 12.7 7.3 0 14.6 0 25 0 35.35 12.7 42.7 20.4 47.15 30.75 48.95 40.8 50.7 51.15 49.6L85.95 29.5Z"/></g><g id="22.ai_.__D0.__A1.__D0.__BB.__D0.__BE.__D0.__B9-1_.__3CPath.__3E_34" transform="translate(172.6 100.15)" opacity=".18"><path fill="#000" stroke="none" d="M107.15 30.8Q106.85 28.45 103.8 26.7L60.9 1.95Q57.9 .2 53.9 .05 49.9 -.15 47.25 1.4L2.4 27.3Q-.2 28.8 .05 31.1 .35 33.45 3.35 35.2L46.25 59.95Q49.3 61.7 53.3 61.85 57.35 62.05 59.95 60.5L104.8 34.6Q107.45 33.1 107.15 30.8Z"/></g><g id="22.ai_.__D0.__A1.__D0.__BB.__D0.__BE.__D0.__B9-1_.__3CPath.__3E_35" transform="translate(100.15 142)" opacity=".18"><path fill="#000" stroke="none" d="M107.1 30.8Q106.8 28.45 103.8 26.7L60.9 1.95Q57.85 .2 53.85 .05 49.85 -.15 47.2 1.4L2.35 27.3Q-.25 28.8 0 31.1 .3 33.45 3.35 35.15L46.25 59.95Q49.25 61.7 53.25 61.85 57.3 62 59.9 60.5L104.75 34.6Q107.35 33.1 107.1 30.8Z"/></g><path fill="#155379" stroke="none" d="M142.45 96.5Q142.9 95.9 142.9 95.3 142.9 94.05 141.25 93.05 139.75 92.2 137.75 92.1 135.7 92.05 134.4 92.8L89.95 118.45Q88.8 119.1 88.8 120.15 88.8 120.8 89.25 121.4 89.75 122 90.45 122.4 91.95 123.25 93.95 123.35 96 123.45 97.3 122.7L141.75 97 142.45 96.5Z"/><path fill="#1599A8" stroke="none" d="M141.75 97L142.45 96.5Q141.95 95.95 141.25 95.5 139.75 94.65 137.75 94.55 135.7 94.45 134.4 95.2L89.95 120.85 89.25 121.4Q89.75 122 90.45 122.4 91.95 123.25 93.95 123.35 96 123.45 97.3 122.7L141.75 97Z"/><path fill="#155379" stroke="none" d="M55.1 142.8Q52.85 141.5 49.85 141.35 46.8 141.25 44.85 142.4L43.35 143.25Q41.6 144.25 41.6 145.8 41.6 146.3 41.8 146.75 42.25 148.1 44.1 149.15 46.4 150.45 49.4 150.6 52.4 150.75 54.35 149.6L55.85 148.75Q57.1 147.95 57.45 147.05 57.6 146.6 57.6 146.15 57.6 144.25 55.1 142.8Z"/><path fill="#1599A8" stroke="none" d="M55.1 144.6Q52.85 143.3 49.85 143.2 46.8 143.05 44.85 144.2L43.35 145.05Q42.2 145.7 41.8 146.75 42.25 148.1 44.1 149.15 46.4 150.45 49.4 150.6 52.4 150.75 54.35 149.6L55.85 148.75Q57.1 147.95 57.45 147.05 56.9 145.65 55.1 144.6Z"/><path fill="url(#Gradient_2)" stroke="none" d="M468.7 288Q460.7 283.35 449.35 283.35 438 283.35 429.95 288 421.95 292.6 421.95 299.2 421.95 305.75 429.95 310.35 438 315 449.35 315 460.7 315 468.7 310.35 476.75 305.75 476.75 299.2 476.75 292.6 468.7 288Z"/><path fill="#F7FAFA" stroke="none" d="M465.55 289.8Q458.85 285.95 449.3 285.95 439.75 285.95 433.05 289.8 426.35 293.65 426.35 299.15 426.35 304.65 433.05 308.55 439.75 312.4 449.3 312.4 458.85 312.4 465.55 308.55 472.25 304.65 472.25 299.15 472.25 293.65 465.55 289.8Z"/><path fill="#0EABB1" stroke="none" d="M463.05 328.35L463.05 330.05Q463.05 331.4 463.65 332.15 464.65 333.3 466.15 332.4L483.05 322.6Q484.35 321.85 485.2 320.1 486.05 318.35 486.05 316.6L486.05 315.05 463.05 328.35Z"/><path fill="#282F39" stroke="none" d="M485.05 315.7L463.05 328.3 463.05 330.05Q463.05 331.4 463.65 332.15 464.2 332.2 464.95 331.8L481.95 322Q483.25 321.25 484.15 319.5 485.05 317.75 485.05 316L485.05 315.7Z"/><path fill="#17AABA" stroke="none" d="M226.5 94.2Q222.5 94 219.85 95.55L175 121.45Q172.4 122.95 172.65 125.25 172.95 127.6 175.95 129.35L218.85 154.1Q221.9 155.85 225.9 156 229.95 156.2 232.55 154.65L277.4 128.75Q280.05 127.25 279.75 124.95 279.45 122.6 276.4 120.85L233.5 96.1Q230.5 94.35 226.5 94.2Z"/><path fill="#17AABA" stroke="none" d="M207.25 166.8Q206.95 164.45 203.95 162.7L161.05 137.95Q158 136.2 154 136.05 150 135.85 147.35 137.4L102.5 163.3Q99.9 164.8 100.15 167.1 100.45 169.45 103.5 171.15L146.4 195.95Q149.4 197.7 153.4 197.85 157.45 198 160.05 196.5L204.9 170.6Q207.5 169.1 207.25 166.8Z"/><g id="22.ai_.__D0.__A1.__D0.__BB.__D0.__BE.__D0.__B9-1_.__3CGroup.__3E_9" transform="translate(116.9 145.7)" opacity=".21"><path fill="#000" stroke="none" d="M51.7 33.6L47.85 31.4 29.45 42Q27.45 40.1 27.8 37.45 27.95 36.1 29.4 32.75 31.5 27.9 31.4 25.45 31.3 21.45 26.65 18.8 21.95 16.05 16.05 16.2 10.15 16.3 5.1 19.25 -.05 22.25 0 25.95 .05 29.6 5.35 32.65L6.3 33.2 10.65 30.7Q6.85 28.45 6 26.3 4.95 23.65 8.65 21.5 11.75 19.75 15.55 19.7 19.35 19.7 22.3 21.4 25.7 23.35 25.65 26.6 25.6 28.25 24 32.25 21.95 37.4 22.45 40 23.1 43.65 28.4 47.1L51.7 33.6Z"/><path fill="#000" stroke="none" d="M74.1 14.95Q72 11.4 64.15 6.85 55.65 1.95 49.75 .6 40.85 -1.4 33.4 2.9 26.05 7.15 29.45 12.25 31.7 15.65 40.15 20.55 48.25 25.2 54.25 26.4 62.8 28.05 70.1 23.85 77 19.85 74.1 14.95M67.4 15.05Q70.95 18.95 66.2 21.7 61.4 24.5 54.7 22.55 50.7 21.4 44.7 17.9 38.2 14.2 36.1 11.95 32.35 7.95 37.25 5.1 42.15 2.25 49.1 4.45 52.8 5.6 59.25 9.3 65.35 12.8 67.4 15.05Z"/></g><g id="22.ai_.__D0.__A1.__D0.__BB.__D0.__BE.__D0.__B9-1_.__3CGroup.__3E_10" transform="translate(190.65 104.65)" opacity=".18"><path fill="#000" stroke="none" d="M12.2 25.25L38.05 40.2 42.75 37.5 7.05 16.85 3.65 18.8Q6.55 21.5 5.35 23.95 4.3 26.05 -.05 28.55L3.2 30.45 12.2 25.25Z"/><path fill="#000" stroke="none" d="M67.3 24.1Q72.9 20.9 73.15 17.3 73.45 13.65 68.3 10.7 61.8 6.95 53.3 9.3 54.6 7.3 53.85 5.4 53.1 3.55 50.45 2.05 46.5 -.25 41.05 .05 35.6 .3 31 2.95 26.3 5.7 25.9 8.85 25.45 12.05 29.5 14.4 32.1 15.9 35.35 16.25 38.6 16.65 41.95 15.85 40 18.25 40.7 20.55 41.4 22.8 44.65 24.7 49.5 27.55 55.75 27.35 61.95 27.2 67.3 24.1M67.2 17.65Q67.1 20.05 63.8 21.95 60.55 23.85 56.4 23.85 52.25 23.9 49.05 22.05 45.95 20.3 46.05 17.95 46.15 15.6 49.35 13.75 52.75 11.75 56.85 11.7 60.9 11.6 64.1 13.45 67.25 15.3 67.2 17.65M48.95 8.2Q48.8 10.05 46.05 11.65 43.2 13.3 39.95 13.4 36.7 13.5 34.15 12 31.65 10.55 31.85 8.7 32.05 6.8 34.85 5.2 37.65 3.6 40.8 3.5 44 3.4 46.6 4.85 49.1 6.3 48.95 8.2Z"/></g><path fill="#FFF" stroke="none" d="M168.6 173.2L164.75 170.95 146.35 181.55Q144.35 179.65 144.7 177 144.85 175.65 146.3 172.3 148.4 167.45 148.3 165.05 148.2 161.05 143.55 158.35 138.8 155.65 132.95 155.75 127.05 155.9 122 158.8 116.85 161.8 116.9 165.5 116.95 169.2 122.25 172.25L123.2 172.8 127.55 170.3Q123.75 168 122.9 165.85 121.85 163.2 125.55 161.1 128.6 159.3 132.45 159.3 136.25 159.25 139.2 161 142.6 162.95 142.55 166.2 142.5 167.75 140.95 171.85 138.9 176.95 139.35 179.55 140 183.2 145.3 186.65L168.6 173.2Z"/><path fill="#FFF" stroke="none" d="M181.05 146.4Q172.5 141.5 166.65 140.2 157.75 138.2 150.3 142.45 142.9 146.7 146.35 151.85 148.6 155.25 157.05 160.1 165.1 164.75 171.15 165.95 179.7 167.6 187 163.4 193.9 159.4 191 154.5 188.9 150.95 181.05 146.4M176.15 148.9Q182.3 152.4 184.3 154.6 187.85 158.55 183.1 161.3 178.3 164.05 171.6 162.1 167.65 161 161.6 157.5 155.05 153.7 153 151.55 149.25 147.5 154.15 144.7 159.05 141.85 166 144 169.8 145.2 176.15 148.9Z"/><path fill="#FFF" stroke="none" d="M229.15 138.55L233.8 135.85 198.4 115.45 195.1 117.4Q197.95 120.05 196.75 122.5 195.75 124.55 191.45 127.05L194.65 128.9 203.5 123.75 229.15 138.55Z"/><path fill="#FFF" stroke="none" d="M231.8 119.1Q232.5 121.4 235.7 123.25 240.5 126 246.65 125.85 252.8 125.7 258.1 122.65 263.6 119.45 263.9 115.9 264.15 112.3 259.1 109.4 252.65 105.65 244.2 108 246.8 103.9 241.4 100.8 237.55 98.55 232.15 98.8 226.75 99.05 222.15 101.7 217.5 104.4 217.05 107.55 216.65 110.7 220.65 113 223.2 114.5 226.45 114.9 229.7 115.25 233 114.5 231.1 116.85 231.8 119.1M237.6 103.6Q240.1 105.05 239.95 106.85 239.8 108.7 237.05 110.3 234.25 111.9 231.05 112 227.8 112.1 225.3 110.65 222.8 109.25 223 107.35 223.15 105.5 225.95 103.9 228.75 102.3 231.9 102.2 235.05 102.1 237.6 103.6M240 120.6Q237 118.85 237.1 116.55 237.15 114.2 240.3 112.35 243.7 110.45 247.7 110.35 251.75 110.25 254.9 112.1 258.05 113.9 258 116.25 257.9 118.6 254.6 120.5 251.35 122.4 247.25 122.4 243.15 122.45 240 120.6Z"/><g id="22.ai_.__D0.__A1.__D0.__BB.__D0.__BE.__D0.__B9-1_.__3CPath.__3E_36" transform="translate(381.1 256.25)" opacity=".23"><path fill="#000" stroke="none" d="M20.95 24.15Q29.6 24.15 35.75 20.6 41.85 17.1 41.85 12.05 41.85 7.05 35.75 3.5 29.6 0 20.95 0 12.25 0 6.15 3.5 .05 7.05 .05 12.05 .05 17.1 6.15 20.6 12.25 24.15 20.95 24.15Z"/></g><path fill="#0EABB1" stroke="none" d="M422.95 261.6Q422.95 256.6 416.85 253.05 410.7 249.55 402.05 249.55 393.35 249.55 387.25 253.05 381.15 256.6 381.15 261.6 381.15 266.65 387.25 270.15 393.35 273.7 402.05 273.7 410.7 273.7 416.85 270.15 422.95 266.65 422.95 261.6Z"/><path fill="#FFF" stroke="none" d="M390.65 263.4L394.9 260.95 390.65 258.55 386.45 260.95 390.65 263.4Z"/><path fill="#FFF" stroke="none" d="M396.35 260.1L400.55 257.7 396.35 255.25 392.15 257.7 396.35 260.1Z"/><path fill="#FFF" stroke="none" d="M397.85 254.4L402.05 256.8 406.25 254.4 402.05 251.95 397.85 254.4Z"/><path fill="#FFF" stroke="none" d="M407.75 260.1L411.95 257.7 407.75 255.25 403.55 257.7 407.75 260.1Z"/><path fill="#FFF" stroke="none" d="M413.4 263.4L417.6 260.95 413.4 258.55 409.2 260.95 413.4 263.4Z"/><path fill="#FFF" stroke="none" d="M407.75 266.65L411.95 264.25 407.75 261.8 403.55 264.25 407.75 266.65Z"/><path fill="#FFF" stroke="none" d="M396.35 266.65L400.55 264.25 396.35 261.8 392.15 264.25 396.35 266.65Z"/><path fill="#FFF" stroke="none" d="M397.85 267.55L402.05 269.95 406.25 267.55 402.05 265.1 397.85 267.55Z"/><path fill="#FFF" stroke="none" d="M397.85 260.95L402.05 263.4 406.25 260.95 402.05 258.55 397.85 260.95Z"/><g id="22.ai_.__D0.__A1.__D0.__BB.__D0.__BE.__D0.__B9-1_.__3CPath.__3E_37" transform="translate(459.55 223.35)" opacity=".15"><path fill="#000" stroke="none" d="M23.25 9.4Q23.25 8.45 22.1 7.8L8.55 0 0 7.9 9.4 13.35Q9.3 13.3 8.3 13.8 7.15 14.5 7.2 15.4 7.2 16.35 8.35 17 9.55 17.7 11.1 17.75 12.7 17.75 13.8 17.1 14.9 16.45 14.85 15.55 14.8 14.65 13.65 13.95L3.9 8.35 10.1 2.75 17.85 7.2 16.6 7.7Q15.5 8.35 15.5 9.3 15.5 10.3 16.65 10.95 17.8 11.6 19.45 11.65 21.05 11.65 22.15 11 23.3 10.35 23.25 9.4Z"/></g><g id="22.ai_.__D0.__A1.__D0.__BB.__D0.__BE.__D0.__B9-1_.__3CGroup.__3E_11" transform="translate(426.4 240.25)" opacity=".15"><path fill="#000" stroke="none" d="M34.1 7.3L21.4 0 15.3 3.5 12.45 1.9 3.3 7.15 6.1 8.8 0 12.3 12.7 19.65 34.1 7.3M21.85 6.6Q24.1 7.9 24.1 9.7 24.1 11.5 21.85 12.75 19.65 14.05 16.5 14.05 13.35 14.05 11.15 12.75 8.95 11.5 8.95 9.7 8.95 7.9 11.15 6.6 13.35 5.3 16.5 5.3 19.65 5.3 21.85 6.6Z"/><path fill="#000" stroke="none" d="M22.55 9.7Q22.55 8.2 20.8 7.2 19.05 6.2 16.55 6.2 14 6.2 12.25 7.2 10.45 8.2 10.45 9.7 10.45 11.15 12.25 12.15 14 13.15 16.55 13.15 19.05 13.15 20.8 12.15 22.55 11.15 22.55 9.7Z"/></g><g id="22.ai_.__D0.__A1.__D0.__BB.__D0.__BE.__D0.__B9-1_.__3CCompound-Path.__3E_1" transform="translate(354.9 283.3)" opacity=".15"><path fill="#000" stroke="none" d="M31.8 8.1Q32.25 7.8 32.2 7.35 32.1 6.9 31.6 6.6L20.55 .2Q19.55 -.35 18.4 .35L.65 10.6Q-.5 11.3 .4 11.85L11.45 18.25Q11.95 18.5 12.75 18.55 13.6 18.6 14.05 18.35L31.8 8.1M19.75 11.3Q19.4 11.55 18.85 11.55L3.55 11.7Q2.3 11.7 2.3 11 2.35 10.7 2.7 10.5 3.1 10.25 3.6 10.25L17.7 10.1 17.95 1.75Q17.95 1.05 19.2 1.05 20.4 1.05 20.4 1.75L20.15 10.8Q20.15 11.15 19.75 11.3Z"/></g><g id="22.ai_.__D0.__A1.__D0.__BB.__D0.__BE.__D0.__B9-1_.__3CGroup.__3E_12" transform="translate(325.2 304.1)" opacity=".15"><path fill="#000" stroke="none" d="M18.3 7.15L17.9 7.05Q15.1 6.2 12.1 7.2L11.85 7.3 11.6 7.45Q11.25 8.7 9.7 9.6 8.05 10.5 6.1 10.65 4.7 11.7 4.8 12.95 4.9 14.25 6.5 15.2L9.85 17.1 22.65 9.7 19.3 7.8Q18.85 7.45 18.6 7.35L18.3 7.15Z"/><path fill="#000" stroke="none" d="M29.35 5.85L26.05 3.9Q24.5 3 22.35 2.95 20.3 2.85 18.5 3.55 18.2 4.7 16.8 5.45 19.35 5.7 21.15 6.7L24.5 8.65 29.35 5.85Z"/><path fill="#000" stroke="none" d="M8.35 .85Q6.75 1.8 6.9 3.15 8.6 3.45 9.7 4.1 10.95 4.9 11.4 5.75 13.8 5.85 15.4 4.9 16.85 4.1 16.85 2.9 16.85 1.7 15.4 .85 13.95 0 11.9 0 9.8 0 8.35 .85Z"/><path fill="#000" stroke="none" d="M8.5 4.75L7.7 4.4Q6.65 4.05 5.45 3.95 3.2 3.8 1.45 4.75 0 5.6 0 6.8 0 8 1.45 8.85 2.9 9.7 5 9.7 7.05 9.7 8.5 8.85 10.1 7.9 9.95 6.55 9.8 5.85 9.15 5.25L8.5 4.75Z"/><path fill="#000" stroke="none" d="M16.85 2.9Q16.85 1.7 15.4 .85 13.95 0 11.9 0 9.8 0 8.35 .85 6.75 1.8 6.9 3.15 8.6 3.45 9.7 4.1 10.95 4.9 11.4 5.75 13.8 5.85 15.4 4.9 16.85 4.1 16.85 2.9Z"/></g><path fill="#FFF" stroke="none" d="M477.4 227.55L476.15 228.05Q475.05 228.7 475.05 229.65 475.05 230.65 476.2 231.3 477.35 231.95 479 232 480.6 232 481.7 231.35 482.85 230.7 482.8 229.75 482.8 228.8 481.65 228.15L468.1 220.35 459.55 228.25 468.95 233.7Q468.85 233.65 467.85 234.15 466.7 234.85 466.75 235.75 466.75 236.7 467.9 237.35 469.1 238.05 470.65 238.1 472.25 238.1 473.35 237.45 474.45 236.8 474.4 235.9 474.35 235 473.2 234.3L463.45 228.7 469.65 223.1 477.4 227.55Z"/><path fill="#FFF" stroke="none" d="M460.5 244.55L447.8 237.25 441.7 240.75 438.85 239.15 429.7 244.4 432.5 246.05 426.4 249.55 439.1 256.9 460.5 244.55M448.25 243.85Q450.5 245.15 450.5 246.95 450.5 248.75 448.25 250 446.05 251.3 442.9 251.3 439.75 251.3 437.55 250 435.35 248.75 435.35 246.95 435.35 245.15 437.55 243.85 439.75 242.55 442.9 242.55 446.05 242.55 448.25 243.85Z"/><path fill="#FFF" stroke="none" d="M448.95 246.95Q448.95 245.45 447.2 244.45 445.45 243.45 442.95 243.45 440.4 243.45 438.65 244.45 436.85 245.45 436.85 246.95 436.85 248.4 438.65 249.4 440.4 250.4 442.95 250.4 445.45 250.4 447.2 249.4 448.95 248.4 448.95 246.95Z"/><path fill="#FFF" stroke="none" d="M355.55 290.9Q354.4 291.6 355.3 292.15L366.35 298.55Q366.85 298.8 367.65 298.85 368.5 298.9 368.95 298.65L386.7 288.4Q387.15 288.1 387.1 287.65 387 287.2 386.5 286.9L375.45 280.5Q374.45 279.95 373.3 280.65L355.55 290.9M358.45 292Q357.2 292 357.2 291.3 357.25 291 357.6 290.8 358 290.55 358.5 290.55L372.6 290.4 372.85 282.05Q372.85 281.35 374.1 281.35 375.3 281.35 375.3 282.05L375.05 291.1Q375.05 291.45 374.65 291.6 374.3 291.85 373.75 291.85L358.45 292Z"/><path fill="#FFF" stroke="none" d="M347.8 310.8L344.45 308.9Q344 308.55 343.75 308.45L343.45 308.25 343.05 308.15Q340.25 307.3 337.25 308.3L337 308.4 336.75 308.55Q336.4 309.8 334.85 310.7 333.2 311.6 331.25 311.75 329.85 312.8 329.95 314.05 330.05 315.35 331.65 316.3L335 318.2 347.8 310.8Z"/><path fill="#FFF" stroke="none" d="M354.55 306.95L351.25 305Q349.7 304.1 347.55 304.05 345.5 303.95 343.7 304.65 343.4 305.8 342 306.55 344.55 306.8 346.35 307.8L349.7 309.75 354.55 306.95Z"/><path fill="#FFF" stroke="none" d="M333.55 301.95Q331.95 302.9 332.1 304.25 333.8 304.55 334.9 305.2 336.15 306 336.6 306.85 339 306.95 340.6 306 342.05 305.2 342.05 304 342.05 302.8 340.6 301.95 339.15 301.1 337.1 301.1 335 301.1 333.55 301.95Z"/><path fill="#FFF" stroke="none" d="M335.1 307.7Q334.95 307 334.3 306.4L333.65 305.9 332.85 305.55Q331.8 305.2 330.6 305.1 328.35 304.95 326.6 305.9 325.15 306.75 325.15 307.95 325.15 309.15 326.6 310 328.05 310.85 330.15 310.85 332.2 310.85 333.65 310 335.25 309.05 335.1 307.7Z"/><path fill="#FFF" stroke="none" d="M342.05 304Q342.05 302.8 340.6 301.95 339.15 301.1 337.1 301.1 335 301.1 333.55 301.95 331.95 302.9 332.1 304.25 333.8 304.55 334.9 305.2 336.15 306 336.6 306.85 339 306.95 340.6 306 342.05 305.2 342.05 304Z"/><g display="none"><g id=".__D0.__A1.__D0.__B8.__D0.__BC.__D0.__B2.__D0.__BE.__D0.__BB-10o12d159" transform="matrix(.678 0 0 .678 251.35 203.45)"><animateTransform attributeName="transform" additive="replace" type="translate" repeatCount="indefinite" dur="5.3s" keyTimes="0;.075;.082;.088;.094;.101;.107;.113;.119;.126;.83;.836;.843;.849;.855;.862;.868;.874;.881;.887;.893;.899;.906;.912;1" values="283.9,201.416;283.9,201.416;283.601,195.162;283.152,188.874;282.804,182.656;282.405,176.415;282.056,170.15;281.657,163.907;281.309,157.653;280.869,151.431;280.869,151.431;280.878,151.399;281.318,157.643;281.629,163.907;281.869,167.651;282.109,171.384;282.288,175.205;282.54,178.9;282.767,182.669;283.007,186.402;283.211,190.134;283.471,193.917;283.642,197.649;283.882,201.398;283.882,201.398"/><animateTransform attributeName="transform" additive="sum" type="scale" repeatCount="indefinite" dur="5.3s" keyTimes="0;.075;.082;.088;.094;.101;.107;.113;.119;.126;.836;.843;.849;.855;.862;.868;.874;.881;.887;.893;.899;.906;.912;1" values=".678,.678;.678,.678;.696,.696;.714,.714;.731,.731;.749,.749;.767,.767;.785,.785;.802,.802;.82,.82;.82,.82;.802,.802;.785,.785;.774,.774;.763,.763;.753,.753;.742,.742;.731,.731;.721,.721;.71,.71;.699,.699;.689,.689;.678,.678;.678,.678"/><animateTransform attributeName="transform" additive="sum" type="translate" repeatCount="indefinite" dur="5.3s" keyTimes="0;.082;.088;.094;.101;.107;.113;.119;.126;.83;.836;.843;.849;.855;.862;.868;.874;.881;.887;.893;.899;.906;.912;1" values="-48,3;-48,3;-48,3.05;-48,3;-48,3.05;-48,3;-48,3.05;-48,3.05;-47.95,2.95;-47.95,2.95;-47.9,3.05;-47.95,3;-47.9,3.05;-47.9,3.1;-47.9,3.1;-47.95,3.05;-47.9,3.1;-47.95,3.05;-47.95,3.05;-47.9,3.05;-48,3.05;-47.9,3.05;-47.9,3.1;-47.9,3.1"/><animate attributeName="opacity" repeatCount="indefinite" dur="5.3s" keyTimes="0;.075;.082;.088;.094;.101;.107;.113;.119;.126;.849;.855;.862;.868;.874;.881;.887;.893;.899;.906;.912;1" values=".38;.38;.45;.53;.61;.69;.76;.84;.92;1;1;.92;.85;.78;.71;.64;.57;.5;.33;.16;0;0"/><g display="none"><g id=".__D0.__A1.__D0.__B8.__D0.__BC.__D0.__B2.__D0.__BE.__D0.__BB-12" transform="translate(48 -3)"><path fill="url(#Gradient_1)" stroke="none" d="M-93.5 -184.65L-319.8 -53.95 93.5 184.65 319.85 54 -93.5 -184.65Z"/><g id=".__D0.__A1.__D0.__B8.__D0.__BC.__D0.__B2.__D0.__BE.__D0.__BB-13" transform="translate(-197.2 -113.9)"><g id="12.ai_.__D0.__A1.__D0.__BB.__D0.__BE.__D0.__B9-1_.__3CPath.__3E_1" transform="translate(-122.6 -70.8)" opacity=".68"><path fill="#000" stroke="none" d="M245.25 10.95L226.3 0 0 130.7 18.9 141.6 245.25 10.95Z"/></g><path fill="#FFF" stroke="none" d="M88.3 -55.75L89.6 -55 88.7 -54.5 93.85 -51.5 94.75 -52 96.3 -51.15 110.1 -59.1 102.15 -63.75 88.3 -55.75Z"/><path fill="#FFF" stroke="none" d="M66.6 -35.7L65.85 -36.1 65.15 -35.7 57.35 -40.2 56.6 -39.75 61.35 -33.25 61.85 -32.95 65.15 -34.9 67 -33.8 67.7 -34.25 65.9 -35.3 66.6 -35.7M64.45 -35.3L62 -33.9 58.45 -38.75 64.45 -35.3Z"/><path fill="#FFF" stroke="none" d="M72.05 -37.9L72 -37.6 71.75 -37.35 71.2 -37.05Q70.7 -36.75 70.1 -36.75 69.5 -36.65 68.95 -37.05L62.15 -40.95Q61.7 -41.25 61.7 -41.6 61.7 -41.9 62.1 -42.15L62.95 -42.65 63.45 -42.75Q63.8 -42.85 64.1 -42.75 64.55 -42.65 64.8 -42.5L65.55 -42.9Q64.75 -43.4 63.7 -43.4 62.8 -43.4 61.9 -42.9L61.35 -42.6 60.85 -42.15 60.65 -41.6Q60.65 -41.3 60.85 -41.05 60.95 -40.8 61.4 -40.55L68.25 -36.6Q69.15 -36.1 70.1 -36.1 71.15 -36.2 71.9 -36.6L72.45 -36.9Q72.8 -37.1 73 -37.4 73.1 -37.6 73.1 -37.95 73.1 -38.15 72.9 -38.55L72.35 -39 69.3 -40.75 67.4 -39.65 68.15 -39.25 69.3 -39.9 71.6 -38.55 71.95 -38.25 72.05 -37.9Z"/><path fill="#FFF" stroke="none" d="M78.45 -40.15L80.15 -41.15 70 -47.05 68.25 -46.05 78.45 -40.15Z"/><path fill="#FFF" stroke="none" d="M74.55 -47.35L72.8 -46.35 81 -41.65 82.7 -42.65 74.55 -47.35Z"/><path fill="#FFF" stroke="none" d="M78.9 -47.8L77.2 -46.8 83.5 -43.15 85.25 -44.15 78.9 -47.8Z"/><path fill="#FFF" stroke="none" d="M86.05 -44.55L87.8 -45.55 83.75 -47.9 82 -46.9 86.05 -44.55Z"/></g></g><animate attributeName="display" repeatCount="indefinite" dur="5.3s" keyTimes="0;.075;1" values="none;inline;inline"/></g><g display="none"><g id=".__D0.__A1.__D0.__B8.__D0.__BC.__D0.__B2.__D0.__BE.__D0.__BB-11" transform="translate(298 57)"><animateTransform attributeName="transform" additive="replace" type="translate" repeatCount="indefinite" dur="5.3s" keyTimes="0;.176;.182;.189;.195;.201;.208;.245;.252;.258;.264;.27;.277;.283;.321;.327;.333;.34;.346;.352;.358;.396;.403;.409;.415;.421;.428;.434;.472;.478;.484;.491;.497;.503;.509;.547;.553;.56;.566;.572;.579;.585;.623;.629;.635;.642;.648;.654;.66;.667;.912;.981;1" values="298,57;298,57;288,51;278,45;268,39;258,33;248,27;248,27;240.5,22.35;233,17.7;225.5,13;218,8.35;210.5,3.7;203,-1;203,-1;196.85,-4.65;190.7,-8.3;184.5,-12;178.35,-15.65;172.2,-19.3;166,-23;166,-23;158,-28;150,-33;142,-38;134,-43;126,-47.95;118,-53;118,-53;108,-59.65;98,-66.3;88,-73;78,-79.65;68.05,-86.3;58,-93;58,-93;51.35,-96.3;44.7,-99.65;38,-103;31.35,-106.3;24.7,-109.65;18,-113;18,-113;10.9,-117.25;3.75,-121.55;-3.4,-125.85;-10.55,-130.1;-17.7,-134.4;-24.85,-138.7;-32,-143;-32,-143;298,57;298,57"/><path fill="#FFF" stroke="none" d="M4.7 -16.85Q2.05 -16.95 .35 -15.95L-27.7 .25Q-29.4 1.25 -29.2 2.75 -29.05 4.3 -27.05 5.4L-9.35 15.65Q-7.35 16.8 -4.7 16.9 -2.05 17 -.35 16L27.7 -.15Q29.45 -1.15 29.25 -2.7 29.05 -4.2 27.05 -5.35L9.35 -15.6Q7.35 -16.75 4.7 -16.85Z"/><path fill="#000" stroke="none" d="M-7.2 -3.1L-8.75 -2.2 4.9 5.65 6.45 4.8 .05 1.1 5.75 -2.2 12.15 1.5 13.7 .6 .05 -7.3 -1.5 -6.4 4.2 -3.1 -1.5 .2 -7.2 -3.1Z"/><path fill="#000" stroke="none" d="M5.65 -9.25Q4.45 -9.9 3.6 -9.35 3.15 -9.1 3.2 -8.75 3.25 -8.4 3.75 -8.15 4.8 -7.55 5.75 -8.05 6.2 -8.3 6.15 -8.65 6.1 -9 5.65 -9.25M8.2 -7.55L6.65 -6.65 16.45 -1 18 -1.9 8.2 -7.55Z"/><path fill="#000" stroke="none" d="M18.5 -4.45Q18.55 -4.1 19.1 -3.75 20.4 -3.05 21.4 -3.65 21.9 -3.9 21.8 -4.3 21.75 -4.65 21.2 -5 19.9 -5.7 18.9 -5.1 18.4 -4.85 18.5 -4.45Z"/></g><animate attributeName="display" repeatCount="indefinite" dur="5.3s" keyTimes="0;.138;.918;.981;1" values="none;inline;none;inline;inline"/></g><g display="none"><g id=".__D0.__A1.__D0.__B8.__D0.__BC.__D0.__B2.__D0.__BE.__D0.__BB-10" transform="translate(160.05 138.7)"><animateTransform attributeName="transform" additive="replace" type="translate" repeatCount="indefinite" dur="5.3s" keyTimes="0;.245;.252;.258;.264;.27;.277;.283;.321;.327;.333;.34;.346;.352;.358;.396;.403;.409;.415;.421;.428;.434;.472;.478;.484;.491;.497;.503;.509;.547;.553;.56;.566;.572;.579;.585;.623;.629;.635;.642;.648;.654;.66;.667;1" values="160.05,138.7;160.05,138.7;151.9,134.05;143.75,129.4;135.55,124.7;127.4,120.05;119.25,115.4;111.05,110.7;111.05,110.7;102.55,106.4;94.05,102.05;85.55,97.7;77.05,93.4;68.6,89.05;60.05,84.7;60.05,84.7;52.05,79.7;44.05,74.7;36.05,69.7;28.05,64.7;20.05,59.75;12.05,54.7;12.05,54.7;2.05,48.05;-7.95,41.4;-17.95,34.7;-27.95,28.05;-37.9,21.4;-47.95,14.7;-47.95,14.7;-54.6,11.4;-61.25,8.05;-67.95,4.7;-74.6,1.4;-81.25,-1.95;-87.95,-5.3;-87.95,-5.3;-95.05,-9.55;-102.2,-13.85;-109.35,-18.15;-116.5,-22.4;-123.65,-26.7;-130.8,-31;-137.95,-35.3;-137.95,-35.3"/><path fill="#FFF" stroke="none" d="M38.55 -14.1L24.35 -22.25Q21.8 -23.75 18.4 -23.9 14.95 -24.05 12.7 -22.75L-39.4 7.35Q-41.6 8.65 -41.35 10.6 -41.15 12.6 -38.55 14.1L-24.4 22.25Q-21.8 23.75 -18.4 23.9 -14.95 24.05 -12.75 22.75L39.35 -7.35Q41.6 -8.6 41.35 -10.6 41.1 -12.6 38.55 -14.1Z"/><path fill="#000" stroke="none" d="M-14.8 10.55L-8.4 14.25 -6.85 13.4 -20.5 5.5 -22.05 6.4 -16.3 9.7 -22.05 13 -27.75 9.7 -29.25 10.55 -15.65 18.45 -14.1 17.55 -20.5 13.85 -14.8 10.55Z"/><path fill="#000" stroke="none" d="M1.8 7.95L.25 7.35Q-.3 8.3 -1.6 9 -4.45 10.65 -7.9 8.75L-1.95 5.3 -2.75 4.8Q-4.45 3.8 -6.45 3.5 -9 3.1 -10.85 4.15 -12.65 5.2 -12.2 6.7 -11.8 8.2 -9.55 9.5 -7.3 10.8 -4.85 10.95 -2.4 11.05 -.45 9.95 1.2 9 1.8 7.95M-9.7 4.95Q-7.6 3.75 -4.65 5.4L-9.15 8Q-10.15 7.3 -10.45 6.5 -10.75 5.55 -9.7 4.95Z"/><path fill="#000" stroke="none" d="M-8.25 -2.4L-9.8 -1.5 4.6 6.8 6.15 5.9 -8.25 -2.4Z"/><path fill="#000" stroke="none" d="M-4.1 -4.8L-5.65 -3.9 8.75 4.4 10.25 3.5 -4.1 -4.8Z"/><path fill="#000" stroke="none" d="M6.4 -5.85Q4.6 -4.8 4.8 -3.35 5 -1.8 7.4 -.4 9.7 .95 12.25 1.05 14.75 1.2 16.5 .15 18.2 -.85 18.15 -2.25 18.05 -3.85 15.5 -5.3 13.25 -6.6 10.75 -6.75 8.25 -6.9 6.4 -5.85M6.9 -3.2Q6.4 -4.3 7.7 -5.05 8.95 -5.75 10.9 -5.45 12.55 -5.2 14 -4.35 15.65 -3.4 16 -2.35 16.35 -1.3 15.25 -.65 14.1 0 12.3 -.2 10.5 -.4 8.9 -1.35 7.35 -2.2 6.9 -3.2Z"/><path fill="#000" stroke="none" d="M17.85 -7.6Q22.6 -4.85 23.9 -1.55L25.1 -2.25Q23.9 -5.6 19.15 -8.35 14.3 -11.15 8.6 -11.75L7.4 -11.1Q13.1 -10.3 17.85 -7.6Z"/></g><animate attributeName="display" repeatCount="indefinite" dur="5.3s" keyTimes="0;.214;.918;1" values="none;inline;none;none"/></g><g display="none"><g id=".__D0.__A1.__D0.__B8.__D0.__BC.__D0.__B2.__D0.__BE.__D0.__BB-9" transform="translate(263.05 77.4)"><animateTransform attributeName="transform" additive="replace" type="translate" repeatCount="indefinite" dur="5.3s" keyTimes="0;.321;.327;.333;.34;.346;.352;.358;.396;.403;.409;.415;.421;.428;.434;.472;.478;.484;.491;.497;.503;.509;.547;.553;.56;.566;.572;.579;.585;.623;.629;.635;.642;.648;.654;.66;.667;1" values="263.05,77.4;263.05,77.4;255.55,72.4;248.05,67.4;240.55,62.4;233.05,57.4;225.55,52.45;218.05,47.4;218.05,47.4;210.05,42.4;202.05,37.4;194.05,32.4;186.05,27.4;178.05,22.45;170.05,17.4;170.05,17.4;160.05,10.75;150.05,4.1;140.05,-2.6;130.05,-9.25;120.1,-15.9;110.05,-22.6;110.05,-22.6;103.4,-25.9;96.75,-29.25;90.05,-32.6;83.4,-35.9;76.75,-39.25;70.05,-42.6;70.05,-42.6;62.95,-46.85;55.8,-51.15;48.65,-55.45;41.5,-59.7;34.35,-64;27.2,-68.3;20.05,-72.6;20.05,-72.6"/><path fill="#FFF" stroke="none" d="M38.45 -35.7Q33.9 -35.85 30.95 -34.15L-59.2 17.85Q-62.15 19.6 -61.85 22.2 -61.5 24.8 -58.05 26.8L-46.35 33.6Q-42.95 35.55 -38.35 35.75 -33.8 35.9 -30.85 34.2L59.25 -17.8Q62.2 -19.5 61.9 -22.15 61.55 -24.75 58.15 -26.75L46.45 -33.5Q43 -35.5 38.45 -35.7Z"/><path fill="#000" stroke="none" d="M-34.3 26.85L-32.75 25.95 -46.4 18.05 -47.95 18.95 -42.25 22.25 -47.95 25.55 -53.65 22.25 -55.2 23.15 -41.55 31 -40 30.15 -46.4 26.45 -40.7 23.15 -34.3 26.85Z"/><path fill="#000" stroke="none" d="M-35.55 22Q-33.25 23.3 -30.7 23.45 -28.2 23.6 -26.45 22.6 -24.75 21.6 -24.8 20.2 -24.9 18.6 -27.4 17.15 -29.65 15.85 -32.2 15.7 -34.7 15.55 -36.55 16.6 -38.35 17.65 -38.15 19.1 -37.95 20.65 -35.55 22M-30.65 22.2Q-32.4 22 -34.05 21.1 -35.6 20.2 -36 19.25 -36.5 18.15 -35.25 17.4 -34 16.7 -32 17 -30.4 17.25 -28.95 18.1 -27.3 19.05 -26.95 20.1 -26.6 21.1 -27.7 21.75 -28.8 22.4 -30.65 22.2Z"/><path fill="#000" stroke="none" d="M-19 18L-17.6 17.2 -20.9 13.7Q-21.95 12.6 -23.35 11.4L-23.35 11.35Q-21.05 12.25 -19.35 12.8L-13.4 14.75 -12 13.95 -19.05 6.7 -20.55 7.55 -16.85 11.1Q-15.6 12.35 -14.35 13.3L-14.4 13.35 -24.55 9.85 -25.85 10.6 -22.25 14.3Q-20.7 15.85 -19.9 16.55L-19.95 16.55Q-21.45 15.9 -23.7 15.15L-29.8 12.9 -31.4 13.8 -19 18Z"/><path fill="#000" stroke="none" d="M.7 6.6L2.1 5.8 -4.05 2.4Q-8.05 .05 -11.25 1.95 -12.85 2.8 -13.2 4.05L-11.65 4.55Q-11.4 3.5 -10.2 2.85 -8.15 1.7 -6 3.05L-5.8 3.15Q-8.25 4.55 -8.65 5.9 -9 7.2 -7.25 8.2 -6.1 8.85 -4.65 8.95 -3.05 9.05 -1.85 8.35 -.1 7.35 -.7 6L-.65 5.95 .7 6.6M-4.5 3.85L-2.8 4.8 -2.35 5.2Q-1.85 5.7 -1.9 6.25 -1.95 6.9 -2.75 7.35 -4.2 8.15 -5.9 7.2 -8.2 5.85 -4.5 3.85Z"/><path fill="#000" stroke="none" d="M-1.85 -3.5Q-2.65 -3.05 -2.7 -2.35 -2.75 -1.65 -2.05 -.95L-2.15 -.9 -4.1 -1.95 -5.45 -1.2 4.4 4.45 5.95 3.55 .7 .55 -.05 0Q-1.9 -1.5 -.25 -2.5L.35 -2.75 -1.35 -3.75 -1.85 -3.5Z"/><path fill="#000" stroke="none" d="M2 -3.95Q2.4 -2.45 4.65 -1.15 6.95 .15 9.35 .3 11.85 .4 13.8 -.7 15.5 -1.7 16 -2.7L14.45 -3.3Q13.85 -2.3 12.6 -1.65 11.4 -.9 9.8 -.95 8.05 -.95 6.3 -1.9L12.25 -5.35 11.5 -5.85Q9.8 -6.85 7.8 -7.15 5.25 -7.55 3.35 -6.5 1.55 -5.45 2 -3.95M3.8 -4.15Q3.45 -5.1 4.5 -5.7 5.7 -6.35 7.25 -6.1 8.5 -5.9 9.55 -5.25L5.05 -2.65Q4.05 -3.4 3.8 -4.15Z"/><path fill="#000" stroke="none" d="M19.6 -15.55L17.95 -14.6 23.5 -8.85 23.5 -8.8 13.3 -11.95 11.6 -10.95 23.8 -7.55 24.35 -7.35 24.65 -7.05Q25.35 -6.1 25.35 -5.15 25.35 -4.45 24.85 -3.85L26.75 -3.2Q27.5 -3.95 27.5 -4.95 27.5 -5.85 26.7 -7.05 26.05 -8.15 24.25 -10.2L19.6 -15.55Z"/><path fill="#000" stroke="none" d="M35.95 -14.9Q35.85 -16.5 33.3 -17.95 31.05 -19.25 28.55 -19.45 26 -19.6 24.2 -18.55 22.4 -17.45 22.6 -16 22.8 -14.5 25.2 -13.1 27.5 -11.75 30.05 -11.65 32.55 -11.5 34.3 -12.55 36 -13.5 35.95 -14.9M33.8 -15.05Q34.15 -14 33 -13.35 31.9 -12.7 30.1 -12.9 28.35 -13.1 26.7 -14.05 25.15 -14.9 24.7 -15.9 24.2 -17 25.5 -17.75 26.75 -18.45 28.7 -18.15 30.35 -17.9 31.8 -17.05 33.45 -16.05 33.8 -15.05Z"/><path fill="#000" stroke="none" d="M30.4 -21.8L36.1 -18.5Q40.35 -16.05 43.35 -17.7 45.25 -18.75 44.3 -20.4L44.35 -20.4 46.05 -19.5 47.4 -20.3 37.55 -25.95 36 -25.05 42 -21.55Q42.35 -21.4 42.8 -20.95 43.2 -20.45 43.15 -19.9 43.1 -19.25 42.35 -18.85 40.45 -17.8 37.35 -19.55L31.95 -22.7 30.4 -21.8Z"/><path fill="#000" stroke="none" d="M49.45 -24.15Q49 -23.9 49.05 -23.5 49.15 -23.15 49.7 -22.8 50.9 -22.1 51.95 -22.7 52.45 -22.95 52.35 -23.35 52.3 -23.7 51.75 -24 50.5 -24.75 49.45 -24.15M38.15 -31Q36.6 -30.05 36.45 -29.05L38.15 -28.6Q38.25 -29.4 39.3 -29.95 40.95 -30.9 42.7 -29.9 43.8 -29.3 44.25 -27.6 44.75 -25.9 46.65 -24.95L47.25 -24.65 48.6 -25.45 48.05 -25.75Q46.45 -26.55 46.1 -28.05 45.75 -29.15 45.45 -29.65 45 -30.4 44.05 -30.95 42.8 -31.7 41.25 -31.75 39.55 -31.8 38.15 -31Z"/></g><animate attributeName="display" repeatCount="indefinite" dur="5.3s" keyTimes="0;.289;.918;1" values="none;inline;none;none"/></g><g display="none"><g id=".__D0.__A1.__D0.__B8.__D0.__BC.__D0.__B2.__D0.__BE.__D0.__BB-8" transform="translate(158 138)"><animateTransform attributeName="transform" additive="replace" type="translate" repeatCount="indefinite" dur="5.3s" keyTimes="0;.396;.403;.409;.415;.421;.428;.434;.472;.478;.484;.491;.497;.503;.509;.547;.553;.56;.566;.572;.579;.585;.623;.629;.635;.642;.648;.654;.66;.667;1" values="158,138;158,138;149.7,132.85;141.35,127.7;133,122.5;124.7,117.35;116.35,112.2;108,107;108,107;98,100.35;88,93.7;78,87;68,80.35;58.05,73.7;48,67;48,67;41.35,63.7;34.7,60.35;28,57;21.35,53.7;14.7,50.35;8,47;8,47;.9,42.75;-6.25,38.45;-13.4,34.15;-20.55,29.9;-27.7,25.6;-34.85,21.3;-42,17;-42,17"/><path fill="#FFF" stroke="none" d="M35.6 -11.15L19.3 -20.55Q16.85 -21.95 13.55 -22.1 10.25 -22.25 8.05 -21L-36.35 4.65Q-38.5 5.9 -38.25 7.8 -38.05 9.7 -35.55 11.15L-19.25 20.55Q-16.75 22 -13.5 22.1 -10.2 22.25 -8.05 21L36.4 -4.65Q38.55 -5.9 38.3 -7.8 38.1 -9.7 35.6 -11.15Z"/><path fill="#000" stroke="none" d="M-12.4 8.7L-13.85 7.85 -18.35 10.45 -22.85 7.8 -18.05 5 -19.5 4.15 -25.85 7.85 -12.25 15.7 -10.7 14.85 -16.9 11.3 -12.4 8.7Z"/><path fill="#000" stroke="none" d="M-16.95 3.95Q-15.85 4.6 -14.9 4.05 -14.45 3.8 -14.5 3.45 -14.55 3.1 -15.05 2.85 -16.15 2.2 -17.1 2.75 -17.5 3 -17.45 3.35 -17.4 3.7 -16.95 3.95M-4.2 11.1L-2.65 10.2 -12.45 4.55 -14 5.45 -4.2 11.1Z"/><path fill="#000" stroke="none" d="M7.15 4.55L1.3 1.15Q-1 -.15 -3.1 -.15 -4.75 -.15 -5.9 .5 -6.9 1.05 -7.1 1.85 -7.25 2.55 -6.85 3.2L-6.9 3.2 -8.6 2.3 -9.95 3.1 -.1 8.7 1.45 7.85 -4.45 4.45 -5.15 3.9Q-5.75 3.3 -5.7 2.7 -5.65 2.1 -4.9 1.65 -2.9 .5 -.05 2.2L5.6 5.45 7.15 4.55Z"/><path fill="#000" stroke="none" d="M7.45 -5.3Q4.9 -5.7 3.05 -4.65 1.2 -3.6 1.65 -2.05 2.05 -.6 4.35 .7 6.6 2 9.05 2.15 11.5 2.25 13.45 1.15 15.05 .25 15.65 -.8L14.15 -1.4Q13.65 -.55 12.3 .25 11.05 1 9.45 .95 7.7 .95 5.95 -.05L11.95 -3.5 11.15 -4Q9.45 -5 7.45 -5.3M4.2 -3.8Q5.35 -4.5 6.95 -4.25 8.1 -4.05 9.2 -3.4L4.7 -.8Q3.7 -1.45 3.45 -2.25 3.15 -3.2 4.2 -3.8Z"/></g><animate attributeName="display" repeatCount="indefinite" dur="5.3s" keyTimes="0;.365;.918;1" values="none;inline;none;none"/></g><g display="none"><use xlink:href="#.__D0.__A1.__D0.__B8.__D0.__BC.__D0.__B2.__D0.__BE.__D0.__BB-5" transform="translate(139.45 146.3)"><animateTransform attributeName="transform" additive="replace" type="translate" repeatCount="indefinite" dur="5.3s" keyTimes="0;.472;.478;.484;.491;.497;.503;.509;.547;.553;.56;.566;.572;.579;.585;.623;.629;.635;.642;.648;.654;.66;.667;1" values="139.45,146.3;139.45,146.3;129.45,139.65;119.45,133;109.45,126.3;99.45,119.65;89.5,113;79.45,106.3;79.45,106.3;72.8,103;66.15,99.65;59.45,96.3;52.8,93;46.15,89.65;39.45,86.3;39.45,86.3;32.35,82.05;25.2,77.75;18.05,73.45;10.9,69.2;3.75,64.9;-3.4,60.6;-10.55,56.3;-10.55,56.3"/></use><animate attributeName="display" repeatCount="indefinite" dur="5.3s" keyTimes="0;.44;.918;1" values="none;inline;none;none"/></g><g display="none"><g id=".__D0.__A1.__D0.__B8.__D0.__BC.__D0.__B2.__D0.__BE.__D0.__BB-7" transform="translate(258 57)"><animateTransform attributeName="transform" additive="replace" type="translate" repeatCount="indefinite" dur="5.3s" keyTimes="0;.547;.553;.56;.566;.572;.579;.585;.623;.629;.635;.642;.648;.654;.66;.667;1" values="258,57;258,57;251.35,53.7;244.7,50.35;238,47;231.35,43.7;224.7,40.35;218,37;218,37;210.9,32.75;203.75,28.45;196.6,24.15;189.45,19.9;182.3,15.6;175.15,11.3;168,7;168,7"/><path fill="#FFF" stroke="none" d="M19.35 -36.8Q13.8 -37.05 10.15 -34.95L-60.55 5.85Q-64.2 7.95 -63.8 11.2 -63.4 14.4 -59.2 16.8L-29.05 34.2Q-24.85 36.65 -19.25 36.85 -13.7 37.1 -10.05 35L60.65 -5.8Q64.3 -7.9 63.85 -11.15 63.45 -14.35 59.25 -16.8L29.15 -34.2Q24.95 -36.6 19.35 -36.8Z"/><path fill="#000" stroke="none" d="M-39.65 16.65L-38.1 15.75 -50.25 8.75 -46.65 6.65 -48.15 5.8 -56.9 10.85 -55.4 11.75 -51.8 9.65 -39.65 16.65Z"/><path fill="#000" stroke="none" d="M-27.6 9.75L-26.05 8.85 -31.9 5.5Q-34.2 4.2 -36.3 4.15 -37.95 4.15 -39.05 4.8 -39.85 5.2 -40.1 6 -40.4 6.7 -39.95 7.35L-40 7.35 -46.1 3.85 -47.65 4.75 -33.3 13.05 -31.75 12.15 -37.65 8.7Q-38.15 8.5 -38.4 8.15 -38.95 7.6 -38.9 7 -38.85 6.4 -38.1 5.95 -36.15 4.8 -33.25 6.5L-27.6 9.75Z"/><path fill="#000" stroke="none" d="M-20.25 4.1L-20.2 4.05 -18.85 4.7 -17.45 3.9Q-18.6 3.4 -19.95 2.6L-23.6 .5Q-27.55 -1.85 -30.85 .05 -32.5 1 -32.75 2.15L-31.25 2.65Q-31 1.65 -29.75 .95 -27.7 -.2 -25.55 1.15L-25.35 1.25Q-27.85 2.7 -28.2 4 -28.6 5.3 -26.8 6.3 -25.65 6.95 -24.2 7.05 -22.6 7.1 -21.4 6.4 -19.65 5.45 -20.25 4.1M-24.1 1.95L-22.4 2.9 -21.9 3.3Q-21.4 3.8 -21.45 4.35 -21.5 5 -22.3 5.45 -23.75 6.25 -25.45 5.3 -27.75 4 -24.1 1.95Z"/><path fill="#000" stroke="none" d="M-24.6 -1.7L-23.25 -2.45 -17.9 .65Q-16.05 1.7 -14.75 1.75 -13.55 1.9 -12.35 1.25 -11.55 .8 -11.25 .3L-12.65 -.45Q-12.8 -.2 -13.4 .15 -14.55 .8 -16.45 -.3L-21.75 -3.35 -19.55 -4.6 -20.9 -5.4 -23.1 -4.1 -25.95 -5.75 -26.95 -4.6 -24.6 -3.25 -25.95 -2.5 -24.6 -1.7Z"/><path fill="#000" stroke="none" d="M-14.9 -8.15L-13.4 -7.65Q-13.15 -8.65 -11.9 -9.35 -10 -10.45 -7.7 -9.15L-7.5 -9.05Q-10 -7.6 -10.35 -6.3 -10.75 -5 -8.95 -4 -7.8 -3.3 -6.35 -3.25 -4.75 -3.15 -3.55 -3.85 -1.8 -4.85 -2.4 -6.2L-2.35 -6.25 -1 -5.6 .4 -6.4Q-1 -7.05 -2.1 -7.7L-5.75 -9.8Q-9.7 -12.15 -13 -10.25 -14.65 -9.3 -14.9 -8.15M-7.6 -5Q-9.9 -6.3 -6.25 -8.35L-4.05 -7Q-2.9 -5.75 -4.45 -4.85 -5.9 -4.05 -7.6 -5Z"/><path fill="#000" stroke="none" d="M5.75 -15.3Q3.5 -16.55 1.1 -16.8 -1.3 -17 -2.85 -16.1 -4.85 -14.95 -3.95 -13.25L-4 -13.25 -5.75 -14.2 -7.1 -13.4 6.75 -5.45 8.3 -6.3 2.95 -9.4 3 -9.4Q5.4 -9 7.15 -10.05 8.75 -10.95 8.5 -12.35 8.25 -13.85 5.75 -15.3M4.3 -14.35Q6 -13.35 6.35 -12.4 6.7 -11.4 5.5 -10.7 4.7 -10.2 3.45 -10.15 2.25 -10.15 1.1 -10.55L-1.4 -11.9 -2 -12.4Q-2.8 -13.1 -2.75 -13.85 -2.7 -14.55 -1.9 -15 -.7 -15.7 1.05 -15.45 2.75 -15.25 4.3 -14.35Z"/><path fill="#000" stroke="none" d="M12.95 -15.15L13 -15.2Q15.25 -14.75 17.15 -15.8 18.75 -16.7 18.5 -18.1 18.25 -19.6 15.7 -21.05 13.5 -22.35 11.1 -22.55 8.7 -22.75 7.15 -21.85 5.1 -20.7 6.05 -19.05L6 -19 4.25 -19.95 2.85 -19.15 16.75 -11.2 18.25 -12.1 12.95 -15.15M11.05 -21.2Q12.7 -21 14.25 -20.15 15.95 -19.15 16.3 -18.15 16.65 -17.15 15.45 -16.45 13.65 -15.4 11.05 -16.3L8.6 -17.65 7.95 -18.15Q7.2 -18.85 7.25 -19.6 7.3 -20.3 8.1 -20.8 9.25 -21.45 11.05 -21.2Z"/><path fill="#000" stroke="none" d="M18.2 -28.05L16.7 -27.15 26.5 -21.5 28 -22.35 18.2 -28.05M16.15 -29.1Q16.1 -29.45 15.65 -29.7 14.55 -30.4 13.6 -29.8 13.15 -29.6 13.2 -29.25 13.25 -28.9 13.75 -28.6 14.8 -28 15.75 -28.5 16.2 -28.75 16.15 -29.1Z"/><path fill="#000" stroke="none" d="M26.7 -31L25.8 -31.95Q24.4 -31.85 23.1 -31.1 21.75 -30.35 21.8 -29.4 21.8 -28.5 23.05 -27.75 24.9 -26.7 28.05 -27.45 30.35 -28 31.45 -27.35 32.85 -26.5 31.25 -25.55 30.1 -24.9 28.5 -24.8L29.45 -23.75Q31.35 -24.05 32.5 -24.75 34 -25.65 34.05 -26.6 34.1 -27.55 32.75 -28.3 30.8 -29.45 27.6 -28.7 25.2 -28.2 24.3 -28.75 23.7 -29.05 23.7 -29.5 23.7 -29.95 24.4 -30.35 25.3 -30.9 26.7 -31Z"/><path fill="#000" stroke="none" d="M-20.4 22.4L-22 23.3 -18.15 27.45Q-16.75 28.95 -16.35 29.3L-16.4 29.35Q-17.2 29.05 -19.6 28.3L-26.8 26.05 -28.45 27 -15.4 30.8 -13.95 29.95 -20.4 22.4Z"/><path fill="#000" stroke="none" d="M-11.55 18.85Q-14.1 18.45 -16 19.5 -17.8 20.55 -17.35 22.1 -16.95 23.55 -14.65 24.85 -12.45 26.15 -9.95 26.3 -7.5 26.4 -5.55 25.3 -3.95 24.4 -3.35 23.35L-4.9 22.75Q-5.45 23.65 -6.75 24.4 -7.95 25.15 -9.55 25.1 -11.3 25.1 -13.05 24.1L-7.1 20.65 -7.85 20.15Q-9.55 19.15 -11.55 18.85M-14.85 20.35Q-13.65 19.7 -12.1 19.95 -10.85 20.15 -9.8 20.75L-14.3 23.35Q-15.3 22.65 -15.55 21.9 -15.9 20.95 -14.85 20.35Z"/><path fill="#000" stroke="none" d="M-4.3 18.35L-5.05 17.8Q-5.9 17.1 -5.95 16.45 -6.05 15.75 -5.25 15.3 -5 15.15 -4.7 15.05L-6.35 14.05Q-6.7 14.15 -6.85 14.3 -7.65 14.7 -7.7 15.45 -7.75 16.15 -7.05 16.85L-7.15 16.9 -9.1 15.85 -10.45 16.6 -.6 22.25 .95 21.35 -4.3 18.35Z"/><path fill="#000" stroke="none" d="M2.7 9.05L1.05 10 6.65 15.8 6.6 15.8 -3.6 12.7 -5.3 13.65 6.9 17.05 7.45 17.25 7.75 17.6Q8.55 18.6 8.45 19.5 8.45 20.15 7.95 20.75L9.85 21.4Q10.6 20.8 10.6 19.65 10.6 18.75 9.8 17.55 9.15 16.45 7.35 14.4L2.7 9.05Z"/><path fill="#000" stroke="none" d="M21.65 7.45L21.65 7.4 22.75 8.05Q26.2 10.05 23.45 11.6 22.05 12.4 20.2 12.6L21.15 13.6Q23.15 13.45 24.8 12.45 26.75 11.25 26.7 10 26.7 8.6 23.45 6.7L15.15 1.8 13.8 2.6 15.2 3.5 15.15 3.5Q12.65 3 10.8 4.05 9.25 4.95 9.5 6.35 9.8 7.9 12.2 9.25 14.25 10.45 16.6 10.65 19 10.85 20.55 9.95 22.4 8.95 21.65 7.45M17.4 4.95L19.15 6Q19.4 6.15 20 6.6 20.6 7.25 20.5 7.85 20.4 8.5 19.65 8.9 18.45 9.6 16.75 9.35 15.15 9.15 13.65 8.3 11.95 7.35 11.65 6.35 11.35 5.35 12.45 4.7 14.15 3.75 16.5 4.55L17.4 4.95Z"/><path fill="#000" stroke="none" d="M30.1 -1.25Q27.85 -2.55 25.35 -2.7 22.85 -2.9 21 -1.8 19.2 -.75 19.4 .7 19.6 2.2 22 3.6 24.3 4.95 26.85 5.05 29.35 5.2 31.1 4.15 32.8 3.2 32.75 1.8 32.65 .2 30.1 -1.25M25.5 -1.45Q27.2 -1.15 28.6 -.3 30.25 .65 30.6 1.7 30.95 2.7 29.85 3.35 28.7 4 26.9 3.8 25.15 3.6 23.5 2.7 21.95 1.8 21.5 .8 21 -.3 22.3 -1.05 23.55 -1.75 25.5 -1.45Z"/><path fill="#000" stroke="none" d="M34.95 -8.3Q32.45 -8.45 30.6 -7.4 28.8 -6.3 29 -4.85 29.2 -3.35 31.6 -1.95 33.9 -.6 36.45 -.5 38.95 -.35 40.7 -1.4 42.4 -2.35 42.35 -3.75 42.25 -5.4 39.75 -6.85 37.5 -8.15 34.95 -8.3M31.9 -6.6Q33.15 -7.3 35.15 -7 36.75 -6.75 38.25 -5.9 39.9 -4.9 40.25 -3.9 40.6 -2.85 39.45 -2.2 38.35 -1.55 36.5 -1.75 34.7 -1.95 33.1 -2.9 31.55 -3.75 31.15 -4.75 30.65 -5.85 31.9 -6.6Z"/><path fill="#000" stroke="none" d="M39.8 -12.7Q38.15 -11.75 38.5 -10.35 38.85 -8.85 41.25 -7.45 43.5 -6.2 45.9 -6 48.3 -5.8 49.85 -6.7 51.9 -7.85 50.85 -9.45L50.85 -9.5 52.65 -8.55 54 -9.35 39.6 -17.6 38.05 -16.7 43.9 -13.35 43.85 -13.3Q41.65 -13.75 39.8 -12.7M48.3 -10.8Q48.7 -10.6 49 -10.3 49.75 -9.6 49.7 -8.9 49.65 -8.2 48.85 -7.75 47.65 -7.05 45.9 -7.3 44.3 -7.5 42.75 -8.4 41.05 -9.35 40.7 -10.35 40.3 -11.4 41.5 -12.05 42.35 -12.55 43.55 -12.55 44.7 -12.6 45.8 -12.15L48.3 -10.8Z"/></g><animate attributeName="display" repeatCount="indefinite" dur="5.3s" keyTimes="0;.516;.918;1" values="none;inline;none;none"/></g><g display="none"><g id=".__D0.__A1.__D0.__B8.__D0.__BC.__D0.__B2.__D0.__BE.__D0.__BB-6" transform="translate(178 127)"><animateTransform attributeName="transform" additive="replace" type="translate" repeatCount="indefinite" dur="5.3s" keyTimes="0;.623;.629;.635;.642;.648;.654;.66;.667;1" values="178,127;178,127;170.9,122.75;163.75,118.45;156.6,114.15;149.45,109.9;142.3,105.6;135.15,101.3;128,97;128,97"/><path fill="#FFF" stroke="none" d="M34.1 -34Q29.55 -34.2 26.65 -32.5L-56.3 15.4Q-59.2 17.1 -58.9 19.65 -58.55 22.25 -55.2 24.2L-41.9 31.9Q-38.55 33.85 -34 34 -29.55 34.2 -26.6 32.5L56.35 -15.35Q59.3 -17.05 58.95 -19.65 58.65 -22.25 55.25 -24.2L41.95 -31.85Q38.55 -33.8 34.1 -34Z"/><path fill="#000" stroke="none" d="M-27.35 23.7L-28.8 22.85 -33.95 25.85 -38.85 23 -34.25 20.35 -35.7 19.5 -40.3 22.15 -44.6 19.65 -39.75 16.85 -41.25 16 -47.6 19.7 -34 27.55 -27.35 23.7Z"/><path fill="#000" stroke="none" d="M-34.75 16.7L-36.4 17.65 -23.35 21.4 -21.9 20.55 -28.35 13 -29.95 13.9 -26.1 18.05Q-25.3 19 -24.3 19.9L-24.35 19.95 -34.75 16.7Z"/><path fill="#000" stroke="none" d="M-15 11.35L-15.8 10.8Q-17.55 9.85 -19.5 9.55 -22.05 9.15 -23.9 10.2 -25.75 11.2 -25.3 12.75 -24.9 14.2 -22.6 15.55 -20.35 16.85 -17.9 16.95 -15.4 17.1 -13.5 15.95 -11.9 15.05 -11.3 14L-12.85 13.4Q-13.25 14.25 -14.65 15.05 -15.9 15.8 -17.5 15.75 -19.25 15.75 -21 14.75L-15 11.35M-20 10.6Q-18.8 10.8 -17.75 11.4L-22.25 14.05Q-23.25 13.3 -23.5 12.55 -23.85 11.6 -22.75 11 -21.6 10.35 -20 10.6Z"/><path fill="#000" stroke="none" d="M-8.45 6.3L-2.8 9.55 -1.25 8.65 -7.1 5.3Q-9.35 4 -11.5 4 -13.1 3.95 -14.3 4.6 -15.3 5.15 -15.5 5.95 -15.65 6.65 -15.25 7.3L-17 6.45 -18.35 7.2 -8.5 12.85 -6.95 11.95 -12.85 8.55 -13.55 8Q-14.15 7.45 -14.1 6.85 -14.05 6.2 -13.3 5.75 -11.4 4.65 -8.45 6.3Z"/><path fill="#000" stroke="none" d="M5.15 -4.95Q6.95 -6 10 -4.25L15.55 -1.05 17.05 -1.9 11.25 -5.25Q8.95 -6.55 6.9 -6.65 5.3 -6.7 4.25 -6.1 3.15 -5.5 3.05 -4.6 2.95 -4.05 3.35 -3.35L3.35 -3.3Q.65 -4.1 -1.05 -3.05 -2.8 -2.05 -1.9 -.5L-1.95 -.45 -3.6 -1.3 -4.95 -.55 4.9 5.05 6.45 4.2 .5 .8 -.25 .2Q-.75 -.3 -.75 -.9 -.75 -1.5 -.1 -1.9 1.65 -2.95 4.35 -1.4L10.25 2 11.75 1.15 5.7 -2.35Q5.25 -2.6 4.9 -2.95 4.45 -3.45 4.45 -4 4.5 -4.6 5.15 -4.95Z"/><path fill="#000" stroke="none" d="M11.5 -8.75Q11.7 -7.2 14.1 -5.8 16.4 -4.45 19 -4.35 21.5 -4.2 23.25 -5.25 24.95 -6.2 24.85 -7.6 24.8 -9.25 22.25 -10.7 20 -12 17.45 -12.15 14.95 -12.3 13.1 -11.25 11.3 -10.2 11.5 -8.75M15.6 -6.75Q14.05 -7.6 13.65 -8.6 13.15 -9.7 14.4 -10.45 15.65 -11.15 17.65 -10.85 19.25 -10.6 20.75 -9.75 22.4 -8.75 22.75 -7.75 23.1 -6.7 21.95 -6.05 20.85 -5.4 19 -5.6 17.2 -5.8 15.6 -6.75Z"/><path fill="#000" stroke="none" d="M24.55 -15.85L25.15 -16.15 23.45 -17.1 22.95 -16.9Q22.15 -16.45 22.1 -15.75 22.05 -15 22.75 -14.3L22.7 -14.25 20.7 -15.35 19.35 -14.55Q21.4 -13.5 22.5 -12.8L29.25 -8.95 30.75 -9.8 25.55 -12.85Q25.25 -13 24.75 -13.35 23.9 -14.05 23.85 -14.7 23.75 -15.4 24.55 -15.85Z"/><path fill="#000" stroke="none" d="M34.5 -14.3Q32.75 -14.3 31 -15.3L37 -18.7 36.2 -19.25Q34.45 -20.2 32.5 -20.5 29.95 -20.9 28.1 -19.85 26.25 -18.85 26.7 -17.3 27.1 -15.85 29.4 -14.5 31.65 -13.2 34.1 -13.1 36.6 -12.95 38.5 -14.1 40.1 -15 40.7 -16.05L39.15 -16.65Q38.75 -15.8 37.35 -15 36.1 -14.25 34.5 -14.3M32 -19.45Q33.2 -19.25 34.25 -18.65L29.75 -16Q28.75 -16.75 28.5 -17.5 28.15 -18.45 29.25 -19.05 30.4 -19.7 32 -19.45Z"/><path fill="#000" stroke="none" d="M28.55 -24.8Q34.3 -24 38.95 -21.3 43.75 -18.55 45.05 -15.25L46.25 -15.95Q45.05 -19.3 40.25 -22.05 35.6 -24.75 29.75 -25.5L28.55 -24.8Z"/></g><animate attributeName="display" repeatCount="indefinite" dur="5.3s" keyTimes="0;.591;.918;1" values="none;inline;none;none"/></g><g display="none"><use xlink:href="#.__D0.__A1.__D0.__B8.__D0.__BC.__D0.__B2.__D0.__BE.__D0.__BB-5" transform="translate(298 57)"/><animate attributeName="display" repeatCount="indefinite" dur="5.3s" keyTimes="0;.667;.918;1" values="none;inline;none;none"/></g></g><animate attributeName="display" repeatCount="indefinite" dur="5.3s" keyTimes="0;.075;.918;1" values="none;inline;none;none"/></g></g></svg>